<?xml version="1.0" encoding="UTF-8" standalone="no"?>
<!-- Created with Inkscape (http://www.inkscape.org/) -->

<svg
   xmlns:dc="http://purl.org/dc/elements/1.1/"
   xmlns:cc="http://creativecommons.org/ns#"
   xmlns:rdf="http://www.w3.org/1999/02/22-rdf-syntax-ns#"
   xmlns:svg="http://www.w3.org/2000/svg"
   xmlns="http://www.w3.org/2000/svg"
   xmlns:sodipodi="http://sodipodi.sourceforge.net/DTD/sodipodi-0.dtd"
   xmlns:inkscape="http://www.inkscape.org/namespaces/inkscape"
   width="299.99902"
   height="340.1843"
   id="svg11170"
   version="1.1"
   inkscape:version="0.92.5 (2060ec1f9f, 2020-04-08)"
   sodipodi:docname="Charlie.svg"
   inkscape:export-filename="/home/hpc/Slides/2015/2015-12-Poster-CV-CS/Charlie.png"
   inkscape:export-xdpi="300"
   inkscape:export-ydpi="300">
  <defs
     id="defs11172" />
  <sodipodi:namedview
     id="base"
     pagecolor="#ffffff"
     bordercolor="#666666"
     borderopacity="1.0"
     inkscape:pageopacity="0.0"
     inkscape:pageshadow="2"
     inkscape:zoom="1.1511719"
     inkscape:cx="196.0012"
     inkscape:cy="277.58115"
     inkscape:document-units="px"
     inkscape:current-layer="layer1"
     showgrid="false"
     inkscape:window-width="984"
     inkscape:window-height="768"
     inkscape:window-x="372"
     inkscape:window-y="0"
     inkscape:window-maximized="0"
     fit-margin-top="0"
     fit-margin-left="0"
     fit-margin-right="0"
     fit-margin-bottom="0" />
  <metadata
     id="metadata11175">
    <rdf:RDF>
      <cc:Work
         rdf:about="">
        <dc:format>image/svg+xml</dc:format>
        <dc:type
           rdf:resource="http://purl.org/dc/dcmitype/StillImage" />
        <dc:title />
      </cc:Work>
    </rdf:RDF>
  </metadata>
  <g
     inkscape:label="Calque 1"
     inkscape:groupmode="layer"
     id="layer1"
     transform="translate(-246.69381,-499.88912)">
    <path
       inkscape:connector-curvature="0"
       id="path12747"
       d="m 246.97255,837.89114 c 1.1793,-3.00523 4.39028,-7.82954 7.96753,-11.97071 4.61859,-5.34669 22.11757,-19.1473 28.89525,-22.7883 14.45,-7.7626 43.4219,-15.70739 72.98887,-20.01528 5.66786,-0.8258 10.99341,-1.90025 11.83457,-2.38766 0.84115,-0.48741 1.79112,-5.37589 2.11105,-10.86329 l 0.58167,-9.9771 -6.75922,-5.73991 c -5.66172,-4.80791 -7.09408,-6.96322 -8.82146,-13.27391 -1.13421,-4.14369 -3.12853,-9.55056 -4.4318,-12.01527 -1.30328,-2.4647 -3.43112,-8.18072 -4.72855,-12.70226 -3.04128,-10.59879 -5.33417,-13.91242 -9.6268,-13.91242 -5.70686,0 -9.23565,-4.71224 -11.83187,-15.79991 -2.62031,-11.19056 -7.55891,-20.28345 -11.68302,-21.51068 -3.88753,-1.15681 -9.44293,-10.743 -9.44293,-16.29436 0,-3.36448 0.9916,-5.61894 3.50995,-7.98006 l 3.50996,-3.29081 -3.0007,-6.00664 c -1.6504,-3.30365 -4.46398,-6.74086 -6.25242,-7.63825 -1.78843,-0.89738 -5.72051,-5.82473 -8.73793,-10.94967 -4.50033,-7.6436 -5.3567,-10.15807 -4.76553,-13.99257 2.36663,-15.3508 7.24322,-28.72658 11.91998,-32.69474 1.35724,-1.15159 2.4677,-3.4393 2.4677,-5.0838 0,-2.52914 -0.50178,-2.87191 -3.25557,-2.2239 -2.23298,0.52545 -3.9351,0.0364 -5.41898,-1.55686 -1.18989,-1.27762 -3.97419,-4.19228 -6.18735,-6.47704 -2.21317,-2.28475 -4.02394,-4.70362 -4.02394,-5.37526 0,-0.67163 -0.86721,-1.22115 -1.92713,-1.22115 -4.34211,0 -5.9214,-3.51267 -5.53102,-12.30213 0.20927,-4.71158 0.45534,-9.00745 0.54684,-9.54638 0.0915,-0.53893 1.74568,-1.54285 3.67597,-2.23092 1.95879,-0.69824 3.20814,-1.94186 2.82739,-2.81442 -0.37522,-0.85985 -1.09091,-2.51538 -1.59042,-3.67893 -1.51254,-3.52323 3.49293,-6.8855 11.5654,-7.76868 4.86081,-0.53182 8.01997,-1.62729 9.46677,-3.28271 1.76047,-2.01431 3.8616,-2.48453 11.10166,-2.48453 4.91161,0 9.31234,0.57969 9.77937,1.2882 0.46705,0.70851 2.31302,0.94373 4.10215,0.52272 4.88007,-1.14835 8.99523,1.39804 8.2406,5.09915 -0.52064,2.55351 -0.0828,3.04995 2.68983,3.04995 2.21798,0 3.55366,0.86746 4.0443,2.62657 0.40294,1.44461 2.17813,3.14184 3.94487,3.77162 1.76675,0.62978 3.75138,2.4745 4.41031,4.09939 1.17497,2.89746 1.49268,2.94518 16.50091,2.47798 11.10987,-0.34585 20.29283,0.26003 33.51425,2.21121 10.01624,1.47815 21.06887,2.98771 24.56141,3.35456 7.40689,0.77801 10.71677,3.43443 19.00357,15.25171 5.08947,7.25777 5.98324,7.94553 10.34344,7.95924 7.75044,0.0244 18.99246,3.38783 25.1253,7.51712 4.88222,3.28724 6.92688,3.85076 13.97214,3.85076 9.73286,0 11.4889,1.9375 6.96064,7.6799 l -2.92005,3.70299 3.45519,0 c 4.16426,0 5.61217,2.84857 3.57678,7.03687 -1.29401,2.66271 -1.15729,3.08126 1.00647,3.08126 4.38741,0 6.23554,3.37598 4.4221,8.07784 -2.0655,5.35543 -2.05296,5.42553 1.11011,6.20104 3.02954,0.74278 3.58493,4.61172 1.01175,7.04795 -1.3506,1.2787 -1.21633,1.84506 0.67449,2.84533 9.96247,5.27021 -10.45823,20.09463 -27.68045,20.09463 l -5.26969,0 0.88443,4.908 c 1.3218,7.33523 -0.39705,13.33408 -5.38652,18.79923 -4.66642,5.11129 -7.39943,14.30371 -7.40375,24.90234 -0.003,7.51797 -3.7558,13.70433 -9.33971,15.39645 -5.03771,1.52661 -5.89158,2.97878 -8.77287,14.91982 -6.23544,25.84174 -11.05736,37.18982 -19.17368,45.12406 l -4.63349,4.52954 0.38883,12.53153 0.38885,12.53152 15.51337,2.72206 c 37.30906,6.54643 49.12234,9.61315 65.83125,17.08969 13.26114,5.93381 21.75214,11.36977 28.79093,18.43203 6.89997,6.92299 10.59897,12.76422 10.59897,16.73725 l 0,2.59234 -151.04445,0 c -143.28339,0 -150.99981,-0.1137 -150.17587,-2.21334 z m 207.46558,-2.31062 c 4.45166,-0.37095 12.34325,-0.97333 17.53686,-1.33863 10.82389,-0.76133 21.64405,-3.0944 34.84229,-7.5128 11.10167,-3.71654 14.39581,-5.29402 14.39581,-6.89379 0,-1.43296 -25.52058,-13.10682 -32.52004,-14.87562 -3.46918,-0.87668 -11.01941,-0.59029 -26.30529,0.9978 -41.02484,4.26216 -52.50291,5.12184 -58.53672,4.38426 -3.33875,-0.40813 -12.74795,-0.94913 -20.90933,-1.20221 -15.91786,-0.49363 -38.56597,-3.18182 -54.13673,-6.42573 -8.78374,-1.82995 -10.24973,-1.82954 -16.86236,0.005 -12.0602,3.34526 -31.00325,12.30565 -30.56154,14.4561 0.55125,2.6837 15.51293,9.80741 22.69736,10.80692 3.30981,0.46046 11.17774,1.64727 17.48426,2.63733 21.99264,3.45266 35.33836,4.51161 65.79178,5.22039 16.86352,0.3925 30.85429,0.88773 31.09061,1.10053 0.53238,0.47939 25.02982,-0.44574 35.99304,-1.35925 z M 373.35418,666.17877 c 8.72401,-3.88134 12.27282,-16.02024 6.72396,-22.99965 -1.54793,-1.94699 -4.70921,-4.58037 -7.02509,-5.85194 -3.95224,-2.17006 -4.66085,-2.18925 -11.54586,-0.31269 -9.00429,2.45419 -14.3137,7.70931 -14.3137,14.16739 0,12.70139 13.68589,20.54699 26.16069,14.99689 z m -10.9442,-8.22595 c -4.15202,-1.5664 -5.40691,-6.9787 -2.35189,-10.14367 2.67121,-2.76738 8.66917,-3.28437 11.14741,-0.96086 2.68321,2.51569 1.92365,8.25677 -1.37935,10.42585 -3.38653,2.22391 -3.33317,2.21903 -7.41617,0.67868 z m 72.52156,4.42603 c 4.04947,-1.96333 9.41292,-10.07318 9.35955,-14.15216 -0.0163,-1.24505 -1.16747,-4.613 -2.55817,-7.48432 -2.04921,-4.23092 -3.71451,-5.64523 -8.78466,-7.46065 -5.54444,-1.98524 -6.90312,-2.04344 -11.94347,-0.51161 -3.12804,0.95065 -7.42971,3.33659 -9.55927,5.3021 -3.55761,3.28355 -3.82086,4.15077 -3.24305,10.68344 0.5488,6.20456 1.25395,7.6469 5.53834,11.32811 4.0651,3.49279 5.96847,4.2183 11.06673,4.2183 3.38649,0 7.9423,-0.86544 10.124,-1.92321 z m -14.00906,-9.24308 c -2.92893,-3.03435 -2.83352,-6.90324 0.23439,-9.50632 7.3476,-6.23433 16.67667,2.72421 9.67395,9.28972 -3.36054,3.15072 -6.99939,3.23027 -9.90834,0.2166 z M 305.05589,584.70294 c 1.28834,-0.65102 6.89526,-2.97419 12.45984,-5.16263 5.56458,-2.18842 11.63504,-4.76067 13.4899,-5.71613 1.85486,-0.95545 8.22883,-4.11007 14.16438,-7.01028 5.93555,-2.90022 12.3325,-6.29324 14.21543,-7.54006 1.88293,-1.24683 8.56043,-4.28462 14.83888,-6.75064 6.27845,-2.46603 16.42276,-6.95422 22.54289,-9.97378 l 11.12754,-5.49009 -6.81005,-2.29597 c -5.93027,-1.99935 -9.54621,-2.19471 -27.98989,-1.51215 -31.17214,1.15359 -33.39708,1.54263 -40.98563,7.16653 -3.58601,2.6576 -7.69843,5.18265 -9.13873,5.61126 -2.72707,0.81149 -4.8257,4.85828 -3.53492,6.8164 0.40973,0.62156 3.62135,0.9483 7.13693,0.72608 3.51557,-0.22221 7.16533,0.19773 8.11054,0.93322 2.52957,1.96829 2.11552,7.29191 -0.64215,8.25632 -1.2984,0.45408 -3.15396,1.85908 -4.12345,3.12223 -0.96951,1.26315 -3.39769,2.30038 -5.39596,2.30496 -1.99829,0.005 -5.45437,1.13912 -7.6802,2.52119 -2.22583,1.38208 -5.34301,2.51662 -6.92705,2.5212 -3.23594,0.009 -6.47303,3.96199 -7.51643,9.17789 -0.77502,3.87432 -0.6618,3.97204 2.65813,2.29445 z"
       style="fill:#f9c1a7" />
    <path
       inkscape:connector-curvature="0"
       id="path12745"
       d="m 249.3043,834.44584 c 4.24943,-7.49307 6.54728,-10.04081 16.94985,-18.79303 19.43051,-16.3479 44.70556,-25.31529 91.73126,-32.54553 5.74726,-0.88365 10.84577,-2.39876 11.80365,-3.50767 0.99326,-1.14987 1.68597,-5.62107 1.68558,-10.87993 l -6.6e-4,-8.92782 -6.59733,-5.32673 c -5.45341,-4.40315 -6.89058,-6.48645 -8.2887,-12.01528 -0.93026,-3.67869 -3.11545,-9.62857 -4.85596,-13.22194 -1.7405,-3.59337 -4.01579,-9.56939 -5.05618,-13.28004 -3.09441,-11.03649 -4.83493,-13.70284 -8.94479,-13.70284 -5.98032,0 -10.0607,-4.74092 -12.00987,-13.95406 -2.92992,-13.84893 -4.09627,-16.12041 -12.27788,-23.91121 -5.55425,-5.28895 -8.1912,-8.89076 -8.82383,-12.0525 -1.0604,-5.29946 1.29694,-11.5616 5.06378,-13.45168 2.50041,-1.25464 2.46459,-1.50282 -1.0428,-7.22408 -1.9977,-3.25863 -5.41602,-7.27978 -7.5963,-8.93588 -2.18026,-1.65611 -4.54874,-4.21726 -5.26326,-5.69145 -0.71452,-1.4742 -2.78399,-4.95693 -4.59881,-7.73941 -3.71342,-5.6934 -4.22521,-12.31047 -1.32059,-17.07434 1.06033,-1.73905 1.9494,-5.32896 1.97567,-7.97758 0.0451,-4.5429 4.63308,-14.11937 8.95038,-18.68209 2.76975,-2.92718 2.46098,-7.72594 -0.47139,-7.32611 -3.11604,0.42487 -8.43118,-1.29846 -8.43118,-2.73364 0,-0.62454 -1.82113,-3.08019 -4.04697,-5.457 -2.22583,-2.37681 -4.04696,-4.95775 -4.04696,-5.73546 0,-0.77769 -1.09268,-1.41398 -2.42818,-1.41398 -1.3355,0 -3.15664,-0.68297 -4.04697,-1.51772 -1.96534,-1.84263 -2.13382,-6.88791 -0.26616,-7.97013 0.89696,-0.51975 0.87179,-1.62618 -0.0747,-3.28433 -1.88997,-3.31096 -0.4868,-7.06305 3.57438,-9.55789 2.71936,-1.67055 3.15856,-2.72667 2.50086,-6.01367 -0.9536,-4.76575 2.67478,-8.63703 7.67414,-8.18791 5.35925,0.48145 11.82949,-1.58505 12.66191,-4.04403 0.66641,-1.96859 2.1949,-2.32165 9.82009,-2.26832 4.96696,0.0348 9.78191,0.64623 10.6999,1.35884 0.91797,0.71261 2.59262,0.96337 3.72143,0.55726 1.1288,-0.40612 3.62824,-0.17667 5.55428,0.50989 2.83794,1.01162 3.34667,1.82823 2.68313,4.3069 -0.7027,2.62502 -0.29244,3.1154 2.89408,3.4591 2.6239,0.28303 3.83609,1.2123 4.13305,3.16844 0.26102,1.71946 1.53372,2.91718 3.35984,3.16191 1.61679,0.21668 3.6784,1.84399 4.58133,3.61623 1.62889,3.19714 1.76051,3.22024 16.875,2.96072 9.64745,-0.16565 21.91116,0.66339 33.44465,2.26091 10.01625,1.38736 20.94306,2.8171 24.28181,3.17721 3.33875,0.36011 7.22004,1.59212 8.6251,2.73779 3.8061,3.10348 14.30773,16.88627 14.30773,18.77807 0,1.05834 1.8127,1.64409 5.0879,1.64409 7.91794,0 22.5775,4.31087 27.2828,8.02293 3.62613,2.86068 5.52515,3.35996 12.77961,3.35996 9.81198,0 12.21185,2.21416 7.4984,6.91815 -3.58614,3.57894 -3.45149,4.46474 0.67869,4.46474 4.04924,0 5.57333,2.8454 3.64714,6.80901 -1.21906,2.50847 -0.91436,3.02055 2.52064,4.23616 4.35795,1.54225 5.07071,4.73594 1.92672,8.63316 -2.70343,3.35109 -2.5484,4.35222 0.67393,4.35222 3.52171,0 4.65534,2.82064 2.58872,6.44106 -1.34369,2.35395 -1.24529,3.10382 0.57062,4.34875 3.50856,2.40535 2.59749,4.98152 -3.68046,10.40704 -6.26986,5.41852 -16.82079,9.15752 -25.84121,9.15752 -4.28731,0 -4.83575,0.31374 -3.86902,2.21334 2.46173,4.83724 1.05165,13.98058 -2.9961,19.42761 -6.70492,9.02273 -7.38692,10.88331 -8.49255,23.16917 -1.2239,13.60005 -3.50476,18.11034 -9.75066,19.28153 -4.35358,0.81635 -5.87382,3.21445 -7.87771,12.42667 -2.5551,11.74615 -8.69176,30.80448 -11.81015,36.67821 -1.84653,3.4781 -5.44241,8.36212 -7.99083,10.85337 l -4.63349,4.52954 0.38883,12.54479 0.38885,12.5448 9.44292,1.61948 c 10.22074,1.75286 31.49625,5.86727 40.9646,7.92201 10.48359,2.27505 30.47661,9.86226 41.70552,15.82695 11.52365,6.12125 21.41789,15.04471 25.98224,23.43297 5.22204,9.59698 19.67299,8.74542 -148.40959,8.74542 l -151.04882,0 3.20908,-5.65864 z m 209.04484,1.80042 c 2.15107,-0.66046 7.79323,-1.20084 12.53817,-1.20084 4.74492,0 12.69768,-0.9135 17.67279,-2.03001 11.47772,-2.57581 34.00198,-10.52326 34.00198,-11.99723 0,-2.47861 -20.30218,-12.15746 -34.28194,-16.34355 -5.26839,-1.57757 -8.20318,-1.46961 -34.51651,1.2697 -31.15427,3.24326 -40.75525,3.62739 -63.40248,2.53676 -22.14802,-1.06658 -53.70716,-4.63832 -65.05964,-7.36319 -3.9301,-0.94332 -6.9444,-0.65927 -13.78848,1.29936 -11.30512,3.23527 -30.97878,12.71268 -31.49199,15.17066 -0.56413,2.70195 17.44834,10.62837 26.70278,11.7506 4.08069,0.49484 11.06171,1.68835 15.51338,2.65222 4.45166,0.9639 11.12916,1.77485 14.83888,1.80213 3.70972,0.0273 9.32751,0.60828 12.48399,1.29107 3.15647,0.6828 16.81498,1.33474 30.35225,1.44874 13.53727,0.11396 26.13082,0.59993 27.98568,1.07981 4.6844,1.2119 45.66918,0.10207 50.45114,-1.36623 z m -44.62948,-55.00945 c 2.04113,-0.75888 2.2964,-1.77831 1.53213,-6.11871 -0.50439,-2.86446 -1.06607,-5.36541 -1.24819,-5.55767 -1.55815,-1.64479 -17.52059,-5.56246 -23.40757,-5.74493 l -7.39933,-0.22934 0.31347,8.81529 c 0.17241,4.84842 0.65773,9.33753 1.07848,9.97582 0.84345,1.27952 25.18523,0.32656 29.13101,-1.14046 z m -8.91199,-29.81222 c 11.68422,-1.56875 22.58015,-6.84659 24.05037,-11.64966 0.46279,-1.51187 1.93747,-5.02542 3.27709,-7.80791 3.05818,-6.35213 6.41715,-17.84556 10.16477,-34.78105 1.1545,-5.21716 2.74951,-11.76232 3.54447,-14.54481 0.79495,-2.78248 1.75028,-7.62021 2.12293,-10.75051 l 0.67753,-5.69144 -3.84829,3.32356 c -8.55226,7.38613 -17.95768,8.91301 -30.60208,4.96793 -7.22109,-2.25299 -9.33402,-3.58908 -12.28299,-7.76707 -1.9589,-2.77529 -4.19283,-6.58978 -4.96426,-8.47665 -1.39808,-3.41954 -1.41238,-3.40912 -4.41136,3.21628 -1.6548,3.6558 -5.00085,8.57394 -7.43565,10.92918 l -4.42691,4.28225 8.06957,0.8781 c 4.43828,0.48296 11.38681,0.48952 15.4412,0.0145 8.29344,-0.9715 10.10269,0.4785 7.2884,5.84116 -3.76948,7.18281 -16.41036,9.12124 -28.52731,4.37454 -4.60678,-1.80465 -4.97745,-2.3224 -4.48634,-6.26647 0.50544,-4.05914 0.35812,-4.23612 -2.63741,-3.16833 -8.12794,2.8973 -24.05691,0.33175 -30.31414,-4.88245 -2.14344,-1.78614 -2.36073,-1.77297 -2.36073,0.14311 0,1.16069 0.57511,3.09861 1.27803,4.30652 0.70293,1.2079 2.5768,6.46476 4.16415,11.68191 1.58737,5.21716 4.01457,12.33147 5.3938,15.80958 1.37922,3.4781 5.10367,13.43813 8.27656,22.13339 6.4711,17.73403 8.53155,20.2417 19.01149,23.13809 8.80915,2.43463 10.55012,2.48982 23.53711,0.74616 z m -21.52872,-20.19126 c -2.98474,-1.62992 -3.07069,-6.98908 -0.13677,-8.52848 1.22318,-0.64178 5.9792,-0.88426 10.56894,-0.53885 4.78215,0.3599 9.5125,0.0422 11.07958,-0.7441 3.77934,-1.89637 7.56763,0.78978 6.94514,4.92454 -0.32944,2.18818 -1.45042,3.21469 -3.83784,3.51434 -1.85486,0.23281 -3.94916,0.94424 -4.65401,1.58096 -1.73016,1.56293 -17.01346,1.4034 -19.96504,-0.20841 z m -7.08219,-28.20432 c -5.93555,-1.60331 -11.39896,-3.0951 -12.1409,-3.31511 -0.74195,-0.21999 -2.41132,0.0358 -3.70972,0.5685 -2.94632,1.20873 -6.21871,0.10169 -7.26641,-2.45808 -0.99089,-2.42098 1.28724,-7.73551 5.3775,-12.54491 2.53579,-2.98162 3.77235,-3.49845 6.71416,-2.8062 2.42859,0.57149 3.60593,1.68763 3.60593,3.4185 0,3.15901 6.60971,5.98616 18.48142,7.90503 6.89014,1.11367 10.11043,0.96589 18.27471,-0.83868 12.75509,-2.81927 17.91744,-5.75924 18.9967,-10.81866 0.70619,-3.31052 1.45147,-3.92492 4.76099,-3.92492 4.98879,0 14.11107,8.81194 12.73648,12.30319 -1.15468,2.9327 -3.0837,4.09564 -6.83302,4.1194 -1.68062,0.0101 -6.23345,1.6687 -10.11742,3.68455 -6.70692,3.48102 -16.33691,5.63346 -31.34356,7.00571 -4.67398,0.4274 -10.0585,-0.27828 -17.53686,-2.29832 z m -1.58023,-37.09118 c 3.93446,-1.85965 8.91622,-10.21528 8.97005,-15.04497 0.0371,-3.33459 -4.88773,-10.22034 -9.70034,-13.56257 -3.35946,-2.33305 -4.27122,-2.41309 -11.12011,-0.97606 -10.51661,2.20657 -15.57264,7.11435 -15.57264,15.11605 0,13.96787 13.45832,21.06807 27.42304,14.46755 z m -14.73169,-11.12151 c -2.04697,-2.92903 -2.04697,-3.3948 0,-6.32383 3.89457,-5.57276 12.93945,-3.03415 12.93945,3.63169 0,6.37209 -9.05157,8.25534 -12.93945,2.69214 z m 75.9859,7.50705 c 11.18428,-6.8625 10.71353,-22.77635 -0.83717,-28.30118 -6.66096,-3.18599 -10.03757,-3.23071 -17.01815,-0.22535 -10.90505,4.69497 -13.80379,12.03886 -8.50934,21.55828 5.35045,9.62012 17.01724,12.70369 26.36466,6.96825 z m -14.48285,-9.4042 c -1.48388,-1.39124 -2.69797,-3.38325 -2.69797,-4.42668 0,-2.64318 4.88881,-6.95621 7.88485,-6.95621 1.3689,0 3.52303,1.07136 4.78698,2.38081 3.89882,4.03916 0.10563,11.53161 -5.83821,11.53161 -0.79072,0 -2.65176,-1.13829 -4.13565,-2.52953 z m -82.30898,-16.83279 c 0.0108,-0.56277 -0.5864,-0.67147 -1.32834,-0.24155 -0.74194,0.42992 -1.33969,1.74409 -1.32834,2.92037 0.0178,1.84311 0.2014,1.8765 1.32834,0.24155 0.71923,-1.04343 1.31698,-2.3576 1.32834,-2.92037 z m 60.02096,-1.61885 c 1.43403,-2.49657 4.00025,-5.56649 5.70273,-6.82205 1.70246,-1.25555 3.0954,-2.58203 3.0954,-2.94772 0,-0.36571 -2.92891,-1.577 -6.50868,-2.69178 -4.69552,-1.46223 -9.43035,-4.66153 -16.99662,-11.48452 -5.76837,-5.20173 -10.98491,-9.45768 -11.59233,-9.45768 -0.60742,0 -2.06463,-0.34546 -3.23822,-0.7677 -2.63188,-0.94689 -2.86594,4.83978 -0.67327,16.64493 l 1.46055,7.86347 5.59527,0.83886 c 4.37877,0.65647 6.92083,2.17683 11.69209,6.99285 3.35325,3.38469 6.71759,6.20271 7.4763,6.26227 0.7587,0.0596 2.55276,-1.93436 3.98678,-4.43093 z m -42.46345,-8.84384 c 0,-0.2422 -1.21409,-1.04956 -2.69798,-1.79413 -2.26738,-1.13771 -2.69798,-0.96184 -2.69798,1.10186 0,1.83294 0.68414,2.28789 2.69798,1.79414 1.48389,-0.36382 2.69798,-0.85966 2.69798,-1.10187 z m 80.574,-5.08779 c -0.44826,-0.42027 -1.61178,-0.46521 -2.58557,-0.0999 -1.07613,0.40375 -0.75649,0.70345 0.81502,0.76413 1.42205,0.0549 2.2188,-0.24401 1.77055,-0.66428 z M 305.05589,584.74993 c 6.6825,-3.24269 21.70739,-8.98146 23.51467,-8.98146 1.13917,0 3.74682,-1.23574 5.79476,-2.74607 4.2527,-3.13633 20.89382,-11.59578 35.76099,-18.17899 5.56458,-2.464 16.61106,-7.42354 24.54773,-11.0212 l 14.43032,-6.54121 -6.33639,-2.31988 c -5.55209,-2.03273 -9.1749,-2.24009 -29.26919,-1.67531 -31.06138,0.87303 -33.29378,1.27957 -43.04717,7.83923 -11.58482,7.79142 -13.21099,9.41053 -11.44979,11.40015 0.9441,1.06654 3.78508,1.48578 8.10822,1.19654 5.37011,-0.35929 6.90943,6.1e-4 7.97323,1.86423 1.991,3.48794 1.58901,6.25481 -1.04242,7.17506 -1.2984,0.45408 -3.15396,1.85908 -4.12345,3.12223 -0.96951,1.26315 -3.27012,2.29662 -5.11246,2.29662 -1.84235,0 -5.72953,1.13829 -8.63819,2.52953 -2.90867,1.39125 -6.20924,2.52954 -7.33461,2.52954 -2.39005,0 -5.46968,4.21789 -6.69499,9.16955 -0.93705,3.7867 -0.60636,4.05199 2.91874,2.34144 z"
       style="fill:#deaf9f" />
    <path
       inkscape:connector-curvature="0"
       id="path12743"
       d="m 247.3683,838.36219 c 0,-0.95825 0.91057,-2.4508 2.02349,-3.31677 1.11291,-0.86597 2.0274,-2.21624 2.03219,-3.00058 0.0283,-4.63624 22.96444,-23.53945 36.1228,-29.77127 14.36272,-6.80219 44.74446,-15.36908 60.9957,-17.19927 4.0807,-0.45956 10.75819,-1.53999 14.83888,-2.40095 l 7.41944,-1.5654 0.39098,-11.05193 0.39098,-11.05193 -6.6934,-5.64222 c -5.47614,-4.61611 -6.95704,-6.79469 -8.14299,-11.97935 -0.79726,-3.48543 -2.56557,-8.45263 -3.92955,-11.03823 -1.36399,-2.5856 -3.52682,-8.11596 -4.8063,-12.28969 -3.85885,-12.58778 -5.77073,-15.80957 -9.3817,-15.80957 -6.70629,0 -9.89389,-4.21204 -13.06529,-17.26423 -2.74729,-11.30671 -3.40822,-12.59532 -9.21342,-17.96326 -9.18101,-8.48949 -10.95632,-11.4224 -10.96639,-18.11706 -0.007,-4.93399 0.59895,-6.36411 3.65347,-8.61679 l 3.66236,-2.70094 -3.24156,-5.72888 c -1.78285,-3.15089 -5.11764,-7.07051 -7.41065,-8.71028 -2.293,-1.63976 -6.55279,-7.32569 -9.46617,-12.6354 l -5.29706,-9.65401 2.30041,-6.07258 c 1.26523,-3.33993 2.31375,-7.70364 2.33005,-9.69714 0.036,-4.41071 3.99584,-12.8592 8.78793,-18.7497 4.7404,-5.82697 4.0276,-8.90539 -2.06204,-8.90539 -3.75307,0 -5.01594,-0.67861 -6.45374,-3.46794 -0.98317,-1.90736 -2.97089,-4.06167 -4.41715,-4.78737 -1.44627,-0.72568 -2.62957,-2.43771 -2.62957,-3.80446 0,-1.81317 -0.91964,-2.48504 -3.4014,-2.48504 -4.0849,0 -7.53903,-5.42573 -4.98097,-7.82408 0.93734,-0.87881 1.21976,-3.53313 0.7314,-6.8737 -0.72465,-4.95682 -0.48579,-5.57441 2.67898,-6.92635 3.80858,-1.62695 5.59062,-4.42819 3.56409,-5.60247 -1.89076,-1.09559 -1.57283,-5.12757 0.53354,-6.76656 1.00298,-0.78043 5.29685,-1.69607 9.54195,-2.03474 9.0535,-0.72229 10.21825,-1.23743 10.21825,-4.51925 0,-1.96241 0.94718,-2.45488 4.72147,-2.45488 2.77292,0 4.72146,0.62636 4.72146,1.51772 0,1.18044 0.35973,1.18044 1.61878,0 2.65823,-2.49226 7.98432,-1.84901 8.79637,1.06238 0.64658,2.3182 0.9469,2.38725 2.95867,0.68029 1.36553,-1.15862 3.46028,-1.60037 5.36936,-1.13231 2.68185,0.65754 3.02733,1.36239 2.41154,4.92016 -0.66834,3.86135 -0.46665,4.13687 2.875,3.92747 2.54127,-0.15924 3.97893,0.5879 4.90894,2.55119 0.72335,1.52701 2.69393,3.10083 4.37907,3.49736 1.75608,0.41324 3.41314,2.02565 3.88211,3.77752 0.81522,3.0453 0.88598,3.05656 19.24364,3.06087 17.61935,0.004 29.33281,1.0813 44.0562,4.05132 3.70972,0.74834 9.47665,1.56925 12.8154,1.82424 6.83189,0.52178 9.95434,3.24203 18.49138,16.10954 4.76347,7.17977 4.90565,7.27241 11.16373,7.27241 8.51857,0 17.95421,2.81098 24.02803,7.15822 4.19864,3.00509 6.29224,3.57836 13.09182,3.58472 7.13524,0.006 8.14092,0.31545 8.49057,2.60687 0.21814,1.42963 -0.84419,3.65214 -2.36074,4.9389 -3.48871,2.96013 -3.54807,4.96595 -0.12208,4.12597 1.44941,-0.35536 3.64539,0.0464 4.87994,0.89275 2.07368,1.42163 2.07931,1.83865 0.0738,5.47466 -2.1644,3.92418 -2.15988,3.93699 1.52777,4.335 2.70618,0.29208 3.81972,1.20189 4.15003,3.39078 0.24831,1.64539 -0.20697,3.60894 -1.01174,4.36346 -2.26806,2.12645 -1.73445,4.29869 1.23478,5.02669 2.94926,0.7231 3.46275,3.51914 1.33185,7.25217 -1.08365,1.89839 -0.80469,2.675 1.34899,3.75566 1.49331,0.7493 2.71512,2.12983 2.71512,3.06784 0,2.36529 -9.28328,10.00249 -14.17429,11.66094 -9.6667,3.27783 -13.99548,4.2513 -18.90423,4.2513 -4.0699,0 -4.87299,0.33728 -3.61394,1.51772 0.89033,0.83475 1.61878,4.45002 1.61878,8.03394 0,6.47019 -0.2861,7.05265 -8.68209,17.67553 -1.16319,1.47171 -2.82177,8.70602 -3.89275,16.97915 -1.68514,13.01752 -2.21955,14.69997 -5.51274,17.3558 -2.00568,1.6175 -4.80997,2.94091 -6.23176,2.94091 -2.6748,0 -2.62581,-0.12256 -8.59585,21.50102 -4.84149,17.53595 -6.29984,21.75966 -9.65898,27.97475 -1.91179,3.53718 -5.55912,8.38432 -8.10519,10.77142 -4.61683,4.32859 -4.62919,4.37192 -4.62919,16.23865 0,6.92391 0.59048,12.24062 1.41235,12.71685 0.7768,0.45012 6.08845,1.56733 11.80366,2.48269 50.57982,8.10098 77.7835,17.75469 95.82416,34.00486 6.44649,5.8067 13.71784,16.25734 13.71784,19.71577 0,0.89141 -47.81049,1.3068 -150.41228,1.3068 -126.85849,0 -150.41229,-0.27283 -150.41229,-1.74229 z m 227.67744,-1.81925 c 7.62448,-0.7943 15.02088,-2.02533 16.43644,-2.73561 1.41557,-0.71029 3.7468,-1.29144 5.18053,-1.29144 2.50976,0 11.61071,-3.0381 22.17417,-7.40222 2.77378,-1.14594 5.0502,-2.71932 5.05871,-3.49641 0.0245,-2.24278 -9.49507,-7.55568 -23.83913,-13.30457 -15.97032,-6.40068 -20.54281,-6.64156 -56.41025,-2.97178 -22.41309,2.29319 -33.97562,2.52299 -64.75147,1.28692 -9.02019,-0.36229 -20.66132,-1.72155 -39.79518,-4.64663 -4.82264,-0.73726 -10.77278,-1.63316 -13.22254,-1.99087 -4.98711,-0.72823 -13.47946,1.14132 -24.54915,5.40437 -9.80268,3.77511 -22.678,10.76189 -23.49052,12.7471 -1.12816,2.75638 19.9723,11.81735 30.36973,13.04139 5.01547,0.59045 9.69615,1.40794 10.40151,1.81666 1.46034,0.84619 26.01249,3.32439 44.09828,4.45112 20.20717,1.25888 97.53868,0.63382 112.33887,-0.90803 z m -65.86514,-53.45771 6.81134,-1.36958 0,-6.26396 c 0,-6.187 -0.072,-6.29295 -5.86585,-8.62139 -4.88643,-1.96379 -21.22173,-5.14129 -26.43104,-5.14129 -2.14631,0 -1.89752,21.11253 0.2584,21.92816 3.10348,1.17409 18.34029,0.8528 25.22715,-0.53194 z m 1.41538,-31.62013 c 11.7956,-1.8491 16.88702,-6.13097 22.43252,-18.8657 4.94252,-11.35009 5.10978,-11.92727 10.57737,-36.5025 1.91305,-8.59863 3.98688,-16.56666 4.60849,-17.70672 1.0948,-2.0079 3.12251,-15.35289 2.33281,-15.35289 -0.21524,0 -2.9121,2.24821 -5.99301,4.99602 -8.51386,7.59339 -17.42177,9.28902 -29.33365,5.58371 -8.35741,-2.59965 -11.63153,-5.37296 -15.60353,-13.21681 -1.73413,-3.42453 -3.67736,-6.06252 -4.31831,-5.86222 -0.64094,0.20032 -2.49449,3.31211 -4.11901,6.91511 -5.32935,11.81992 -12.8558,16.76138 -25.52959,16.76138 -8.14216,0 -19.35839,-3.75961 -20.65304,-6.92278 -0.43459,-1.06182 -1.40117,-1.93058 -2.14794,-1.93058 -1.55373,0 -0.89964,4.05656 2.19229,13.59623 1.18366,3.65201 3.02372,9.34346 4.08903,12.64766 4.49076,13.92875 17.05321,46.44097 19.04645,49.29309 2.47666,3.5439 9.36254,6.55026 18.13732,7.91875 6.2176,0.96968 11.26591,0.68865 24.2818,-1.35175 z m -19.56034,-19.44696 c -0.74194,-0.25423 -3.01836,-0.80744 -5.05871,-1.22935 -2.78796,-0.5765 -3.70972,-1.52058 -3.70972,-3.79953 0,-3.88589 1.56902,-4.37043 11.56882,-3.57255 4.50799,0.3597 9.36435,0.0887 10.79192,-0.60219 3.66055,-1.77162 5.96803,-0.63719 5.96803,2.93407 0,2.34624 -0.72101,3.05652 -3.10267,3.05652 -1.70647,0 -3.67937,0.52485 -4.38422,1.16634 -1.43774,1.3085 -9.99454,2.75905 -12.07345,2.04669 z m -13.55851,-29.69489 c -5.23136,-1.23705 -10.71044,-2.85075 -12.17574,-3.58599 -1.79518,-0.90076 -3.44958,-0.92473 -5.07202,-0.0735 -3.07997,1.61606 -6.29093,0.47404 -6.29093,-2.23741 0,-2.28414 5.0499,-10.67014 7.34823,-12.20267 2.49707,-1.66505 5.32544,-0.39754 6.1156,2.74063 0.58698,2.3313 2.49823,3.59964 8.15309,5.41061 11.2824,3.61318 20.89288,4.13687 30.91274,1.68446 13.11035,-3.20881 18.45162,-6.15764 19.42585,-10.72467 1.16194,-5.44691 5.88058,-5.18753 11.36925,0.62496 4.75153,5.03186 4.48136,7.85521 -0.84797,8.86129 -1.95852,0.36973 -7.2032,2.35983 -11.65486,4.42244 -7.67955,3.55821 -26.5131,7.64856 -34.211,7.43009 -1.95838,-0.0555 -7.84089,-1.1132 -13.07224,-2.35026 z m 9.65706,-14.40628 c -5.64191,-1.59679 -8.44799,-4.45597 -7.24878,-7.38594 0.59149,-1.44517 3.8318,-1.79464 15.68135,-1.69126 8.2147,0.0717 15.30954,0.4807 15.76631,0.90896 1.59069,1.49138 -2.02435,5.73866 -6.62752,7.78663 -5.34263,2.37696 -10.15221,2.48141 -17.57136,0.38161 z m -51.11864,-5.24348 c -3.35485,-9.67443 -4.62919,-9.89959 -2.35901,-0.41679 2.24312,9.36976 2.56403,10.12437 3.9612,9.31479 0.69512,-0.40278 -0.005,-4.29346 -1.60219,-8.898 z m 123.71695,-6.67235 c 0.48607,-3.99982 1.24085,-9.83355 1.67727,-12.96385 1.3342,-9.56982 -0.83316,-4.82879 -2.95136,6.45598 -2.32463,12.38454 -2.40599,13.78027 -0.80324,13.78027 0.65644,0 1.59125,-3.27258 2.07733,-7.2724 z m -84.76893,-9.75677 c 11.09837,-6.81791 11.33345,-21.3091 0.4634,-28.56601 -3.47872,-2.32241 -5.32432,-2.66583 -10.96213,-2.03981 -16.04737,1.78192 -23.23246,14.73264 -14.53051,26.19041 5.48552,7.22271 17.11878,9.27495 25.02924,4.41541 z m -13.26844,-9.63221 c -4.8805,-2.66514 -1.48215,-11.28158 4.44948,-11.28158 1.41378,0 3.56489,1.42286 4.78025,3.16191 2.04697,2.92903 2.04697,3.3948 0,6.32383 -2.33504,3.34121 -5.33199,3.92433 -9.22973,1.79584 z m -33.99724,1.54881 c -2.43296,-6.86762 -7.9506,-11.63423 -10.59616,-9.15385 -1.06678,1.00018 -0.7471,1.38711 1.15595,1.39914 1.8774,0.0114 3.7461,2.19473 6.52701,7.62428 4.59578,8.973 6.06917,9.03895 2.9132,0.13043 z m 105.73721,5.55414 c 6.51768,-3.15999 10.88561,-9.10354 10.88561,-14.81233 0,-10.40219 -7.27956,-17.48463 -17.97129,-17.48463 -5.90928,0 -16.02816,4.95232 -18.0897,8.85336 -7.50078,14.19373 10.21925,30.69483 25.17538,23.4436 z m -11.77741,-11.04889 c -2.21254,-2.07441 -2.03746,-6.70014 0.32313,-8.53693 1.06804,-0.83107 3.64799,-1.32761 5.7332,-1.10345 6.91423,0.74332 5.51411,11.1581 -1.50004,11.1581 -1.61563,0 -3.66596,-0.68298 -4.55629,-1.51772 z m 48.76643,-12.62631 c 1.49832,0.24057 2.14055,-0.13861 1.60663,-0.94857 -1.44986,-2.19946 -5.92317,-1.53878 -7.42775,1.09703 -0.76804,1.34551 -1.36987,4.61809 -1.3374,7.2724 l 0.0591,4.82602 2.30168,-6.32383 c 1.77777,-4.88437 2.86986,-6.2326 4.79779,-5.92305 z m -129.97557,-3.01717 c 0,-0.82531 -0.88556,-2.18962 -1.96791,-3.03181 -1.62136,-1.26159 -2.12208,-0.95529 -2.84346,1.73946 -0.48155,1.79888 -0.46321,4.26797 0.0407,5.48686 0.85465,2.06701 1.04604,2.05092 2.84346,-0.2389 1.05996,-1.35029 1.92717,-3.13032 1.92717,-3.95561 z m 60.03866,-2.34665 c 2.0748,-3.07748 5.76366,-6.60085 8.19747,-7.82971 l 4.42512,-2.2343 -8.75602,-2.87075 c -8.32074,-2.72803 -19.76364,-10.6815 -24.51162,-17.03696 -2.08697,-2.79354 -8.58354,-6.17012 -11.87136,-6.17012 -2.03964,0 -2.19316,1.13867 -1.40679,10.43431 1.30501,15.42676 1.55777,15.93458 8.77974,17.63956 4.58819,1.08319 7.84884,3.06774 12.31515,7.4955 3.3411,3.31223 6.7455,6.05501 7.56534,6.09507 0.81983,0.0401 3.18817,-2.44511 5.26297,-5.5226 z m -43.24881,-8.45441 c 0.78464,-0.68714 0.26485,-1.83522 -1.34898,-2.97954 -4.13571,-2.93254 -5.99795,-2.33101 -5.99795,1.93742 0,3.43477 0.34796,3.78097 3.03523,3.01975 1.66937,-0.47287 3.60964,-1.36281 4.3117,-1.97763 z m 83.22315,-4.96373 c -3.40701,-2.6611 -11.55805,-3.32433 -15.02669,-1.22269 -1.53095,0.92761 -0.87425,1.26143 2.69798,1.37148 2.5968,0.0799 6.23907,0.60112 8.09393,1.15806 6.11539,1.83621 7.65178,1.36207 4.23478,-1.30685 z M 318.29782,579.69746 c 5.25278,-2.16095 10.36487,-3.92899 11.36019,-3.92899 0.99531,0 2.93337,-0.95345 4.30677,-2.11875 2.68547,-2.27859 16.94328,-9.43795 37.51052,-18.8354 7.04847,-3.22055 18.86193,-8.61696 26.25214,-11.99204 7.3902,-3.37509 12.55009,-6.36885 11.4664,-6.65282 -1.08368,-0.28396 -4.20223,-1.18756 -6.93012,-2.00799 -5.43679,-1.63515 -34.2446,-1.98037 -52.08839,-0.6242 -9.65419,0.73376 -11.86666,1.36482 -16.18787,4.61735 -2.75292,2.07207 -7.31074,5.14658 -10.12847,6.83222 -9.32915,5.58093 -7.63625,10.38293 3.44467,9.77094 5.1984,-0.28712 6.64721,0.10915 7.80316,2.13421 1.60001,2.80299 0.70041,4.96406 -2.06642,4.96406 -1.01913,0 -2.23161,1.11852 -2.69439,2.48559 -0.55488,1.63912 -2.5383,2.76426 -5.82411,3.30387 -2.74047,0.45005 -6.32718,1.60811 -7.97045,2.57347 -1.64327,0.96536 -4.45691,1.75519 -6.25255,1.75519 -3.90887,0 -7.49266,4.59627 -8.60794,11.03987 l -0.7809,4.51173 3.91862,-1.94967 c 2.15524,-1.07231 8.21636,-3.7177 13.46914,-5.87864 z"
       style="fill:#a49e9b" />
    <path
       inkscape:connector-curvature="0"
       id="path12741"
       d="m 249.97443,836.43113 c 1.5344,-2.02033 2.78983,-4.18226 2.78983,-4.80428 0,-3.35463 23.77186,-22.83957 33.50774,-27.4651 16.45598,-7.81825 39.38688,-14.42944 62.27048,-17.95317 19.79303,-3.04783 20.7965,-3.25199 22.59557,-4.59708 1.11489,-0.83356 1.68601,-4.95799 1.68558,-12.17256 l -6.6e-4,-10.91184 -6.68813,-5.40007 c -5.04367,-4.07232 -6.9072,-6.56012 -7.57913,-10.11812 -0.49005,-2.59494 -2.62692,-8.48499 -4.74858,-13.089 -2.12168,-4.60403 -4.71627,-11.43376 -5.76577,-15.17719 -3.08643,-11.00891 -4.85875,-13.76246 -8.85818,-13.76246 -6.71764,0 -9.08188,-2.96784 -12.07566,-15.15868 -2.9627,-12.06425 -7.51394,-20.04947 -12.99477,-22.79959 -1.82324,-0.91485 -4.56126,-4.07707 -6.08447,-7.02715 -3.3512,-6.49044 -2.54827,-11.34606 2.54681,-15.40152 l 3.56817,-2.84012 -3.94424,-6.86577 c -2.16932,-3.77618 -5.26005,-7.52601 -6.86827,-8.33297 -3.47701,-1.74465 -12.42079,-15.62689 -13.58552,-21.08697 -0.51623,-2.42 -0.0213,-5.29723 1.33396,-7.75433 1.1851,-2.14866 2.16068,-5.78464 2.16792,-8.07995 0.0142,-4.47596 4.87015,-14.76318 9.47658,-20.07568 2.06097,-2.37687 2.57555,-4.17591 1.90784,-6.67018 -0.82782,-3.09234 -1.34431,-3.33984 -5.45935,-2.61605 -3.9261,0.69056 -4.71067,0.39325 -5.76132,-2.18317 -0.66896,-1.64042 -2.50005,-4.0668 -4.06909,-5.39196 -1.56903,-1.32514 -2.85278,-3.42163 -2.85278,-4.65886 0,-1.48934 -1.20762,-2.38473 -3.57367,-2.6497 -5.32808,-0.59667 -7.06143,-4.01258 -3.78906,-7.46715 1.88859,-1.99377 2.16074,-2.94593 0.95503,-3.34135 -0.92743,-0.30415 -1.68624,-2.20216 -1.68624,-4.2178 0,-2.85432 0.74583,-3.84031 3.37247,-4.4584 1.85486,-0.43647 3.44436,-1.72789 3.53222,-2.86982 0.16099,-2.09229 0.0232,-2.91905 -1.10737,-6.64467 -0.77475,-2.55304 2.17669,-3.66878 11.68659,-4.4179 7.67673,-0.60473 9.94123,-2.13388 8.69967,-5.87465 -0.6066,-1.82766 0.1179,-2.21334 4.15738,-2.21334 2.91781,0 4.55553,0.5104 4.05826,1.26477 -0.45855,0.69562 -0.22667,1.26476 0.51528,1.26476 0.74194,0 1.72415,-0.56914 2.1827,-1.26476 1.05125,-1.59476 7.00004,-1.65945 8.03632,-0.0874 0.42687,0.64756 0.15917,1.53487 -0.59488,1.9718 -2.18872,1.26825 -1.58672,3.17466 1.00249,3.17466 1.30542,0 3.16052,-1.18156 4.12244,-2.62567 2.70199,-4.05644 6.12408,-0.79764 5.00987,4.77081 -0.82372,4.1167 -0.74841,4.19764 3.60663,3.87541 3.84327,-0.28437 4.43337,0.0578 4.34081,2.51662 -0.0799,2.12183 0.65022,2.84572 2.87005,2.84572 3.5821,0 6.59825,3.0513 5.54935,5.61401 -0.64462,1.57499 2.20759,1.84823 19.07218,1.82706 18.94261,-0.0238 30.65457,1.01993 45.46094,4.05125 3.70972,0.75949 8.86961,1.47427 11.46641,1.58842 2.59681,0.11408 5.68625,0.77482 6.86544,1.46817 2.77784,1.63337 14.71839,17.11651 14.71839,19.08511 0,2.06979 3.20511,3.04418 10.01335,3.04418 7.79485,0 17.07528,2.77873 22.68973,6.79372 3.73952,2.67418 6.12546,3.32441 12.19852,3.32441 4.15236,0 7.96059,0.62325 8.46272,1.385 0.50215,0.76176 -0.37259,3.01528 -1.94387,5.00786 -3.67412,4.65923 -3.61917,6.52817 0.17838,6.06814 5.24805,-0.63575 6.6803,1.0828 4.37926,5.25468 -2.69223,4.88116 -2.6292,5.0501 1.88411,5.0501 4.98625,0 5.97626,2.47705 2.80278,7.01271 -2.81151,4.01831 -2.39031,5.63494 1.46813,5.63494 2.99801,0 3.38742,2.66518 0.93213,6.37958 -1.68521,2.54942 -0.73114,3.94778 3.68117,5.39542 2.36985,0.77752 -3.1887,7.00631 -9.06713,10.16042 -9.07349,4.86843 -18.80623,6.69024 -26.04468,4.87512 -7.37971,-1.85054 -8.70179,-1.88384 -8.70179,-0.21916 0,0.71284 1.65702,1.88674 3.68227,2.60866 4.87678,1.73839 5.71545,3.21947 5.74,10.13686 0.015,4.20467 -0.90319,7.01368 -3.30703,10.11812 -1.83024,2.36363 -4.21555,5.43581 -5.30071,6.82705 -1.10171,1.41247 -2.66978,8.39413 -3.55082,15.80957 -1.77324,14.92506 -3.47625,18.44208 -9.65711,19.94371 -4.82771,1.17288 -4.62211,0.71151 -11.96635,26.85262 -5.15632,18.35341 -9.01718,26.36949 -16.28147,33.80423 l -5.22441,5.34698 0,11.88867 c 0,8.25451 0.53985,12.30874 1.76605,13.26284 0.97131,0.7558 6.58647,2.1997 12.47814,3.20865 26.29898,4.50373 34.24219,6.09547 43.08785,8.63438 34.05052,9.77327 54.10676,21.89737 62.8603,37.99935 l 3.9535,7.2724 -150.52357,0 -150.52356,0 2.78985,-3.67335 z m 213.23213,1.16525 c 21.2042,-1.89995 32.52619,-4.0395 45.86563,-8.66738 11.07328,-3.84167 16.38443,-6.60772 15.81549,-8.2367 -1.4348,-4.1082 -33.68145,-18.39276 -42.45877,-18.80833 -3.42266,-0.16204 -29.03073,2.18777 -59.42617,5.45298 -6.90224,0.74147 -14.79382,1.00487 -17.53686,0.58534 -2.74302,-0.41953 -11.36129,-0.80693 -19.1517,-0.8609 -7.79041,-0.054 -15.98552,-0.58934 -18.21135,-1.18974 -2.22584,-0.60038 -10.14442,-1.6626 -17.59684,-2.36045 -7.45242,-0.69785 -17.29795,-2.16909 -21.87896,-3.26942 -7.93062,-1.90488 -8.76119,-1.87546 -17.3612,0.61496 -15.87883,4.59827 -34.21977,13.74174 -34.21977,17.05953 0,0.91855 4.82067,4.02149 10.71261,6.89542 7.78261,3.79617 13.29107,5.5289 20.14003,6.33519 5.18508,0.61041 10.00453,1.44425 10.70989,1.85297 1.46034,0.84619 26.01249,3.32439 44.09828,4.45112 24.94893,1.55429 83.82525,1.63947 100.49969,0.14541 z m -53.28507,-53.58812 6.74494,-1.46849 0,-6.93732 c 0,-6.85248 -0.066,-6.96643 -5.39193,-9.31767 -5.86254,-2.58812 -25.88056,-6.28542 -28.64525,-5.29074 -1.19772,0.43092 -1.71103,3.8648 -1.71103,11.44654 0,10.05002 0.21885,10.91344 3.03523,11.9748 4.18405,1.57678 17.83896,1.3627 25.96804,-0.40712 z m 0.22331,-31.30188 c 19.06053,-3.11202 24.90563,-12.88936 34.97649,-58.50663 1.82152,-8.25082 3.93224,-16.08832 4.69049,-17.41667 0.75826,-1.32834 1.0427,-2.92479 0.63211,-3.54766 -0.41059,-0.62288 -0.22142,-2.46083 0.42037,-4.08435 0.6418,-1.62353 1.59706,-6.07727 2.1228,-9.89723 l 0.95591,-6.94537 -3.8579,6.92378 c -7.25317,13.01733 -20.39237,17.97743 -35.31331,13.33091 -7.38713,-2.30042 -11.90044,-6.6261 -15.61855,-14.9692 -2.8528,-6.40142 -5.44456,-5.89619 -8.09222,1.57748 -4.29486,12.12329 -12.26258,17.97038 -24.67752,18.10953 -10.67259,0.11965 -17.83805,-2.95765 -23.20642,-9.96626 -2.39966,-3.13284 -4.61707,-5.45787 -4.92761,-5.16674 -2.01009,1.88459 25.69487,80.05565 29.9267,84.43982 6.25331,6.47841 23.95677,9.05939 41.96866,6.11859 z m -22.04642,-22.2523 c -3.75841,-0.68593 -5.97369,-3.18064 -4.6319,-5.21614 0.78739,-1.19449 3.37054,-1.32477 10.4806,-0.5286 7.32222,0.81991 9.81645,0.6744 11.13568,-0.64967 1.3201,-1.32494 2.12978,-1.37182 3.62325,-0.20974 2.3639,1.83938 0.0227,5.17464 -2.89545,4.12477 -1.03961,-0.37403 -2.85972,0.22895 -4.0447,1.33994 -2.03882,1.91153 -7.11725,2.33491 -13.66748,1.13944 z m -9.87814,-28.97834 c -3.33874,-1.00891 -8.05872,-2.42889 -10.48885,-3.15552 -2.4301,-0.72664 -6.22414,-0.94931 -8.43118,-0.49483 -3.32097,0.68386 -4.01278,0.42352 -4.01278,-1.5101 0,-3.22496 6.40264,-11.77698 8.81706,-11.77698 1.08616,0 1.97485,1.0686 1.97485,2.37467 0,3.10374 1.94777,4.41215 10.11742,6.79637 11.6429,3.39787 19.88916,3.86532 29.21711,1.6562 13.09753,-3.10186 20.56088,-7.0938 21.36998,-11.43023 0.37097,-1.98825 1.34984,-3.82559 2.17525,-4.08297 1.95306,-0.60901 11.5662,8.39912 10.92253,10.23512 -0.27131,0.77388 -2.57048,1.69162 -5.1093,2.03943 -2.53881,0.34781 -7.34771,2.13946 -10.68646,3.98142 -6.58235,3.63146 -24.34402,7.46169 -33.85933,7.30162 -3.26471,-0.0549 -8.66755,-0.92531 -12.0063,-1.9342 z m 8.09394,-14.93316 c -3.6191,-1.22457 -4.72146,-2.30947 -4.72146,-4.64664 0,-2.3218 0.64352,-2.96613 2.69797,-2.70137 12.54634,1.61698 18.08243,1.70313 20.83064,0.32416 3.57822,-1.79544 6.00002,-0.26519 4.68091,2.95772 -2.16497,5.28958 -13.87912,7.31747 -23.48806,4.06613 z m -46.75688,4.18343 c -0.11925,-0.96856 -3.01425,-10.01362 -6.43342,-20.10012 -6.35427,-18.74499 -10.22131,-24.70152 -15.42632,-23.76171 -3.12883,0.56493 -2.92158,5.5363 0.21008,5.03921 3.26221,-0.51782 11.16679,15.53137 14.09473,28.61751 1.19476,5.33986 2.76445,10.43925 3.48821,11.33193 1.63108,2.0118 4.35996,1.25566 4.06672,-1.12682 z m 122.37945,-21.37584 c 2.92249,-19.54475 5.14476,-27.81389 7.47481,-27.81389 1.03891,0 1.90823,0.996 1.93183,2.21334 0.0394,2.02981 0.20279,2.01533 1.97122,-0.17472 2.54604,-3.15307 0.36752,-7.09768 -3.91989,-7.09768 -4.58229,0 -6.20602,2.56545 -7.64239,12.07474 -0.70227,4.64929 -1.51466,8.81448 -1.8053,9.25596 -0.57971,0.88054 -4.83441,23.37463 -4.83441,25.55893 0,0.74631 1.04645,1.16799 2.32546,0.93706 1.88139,-0.3397 2.74044,-3.19523 4.49867,-14.95374 z m -86.17179,-2.22179 c 4.3809,-2.4263 9.20023,-10.77406 9.20023,-15.9361 0,-7.84185 -9.0758,-17.24998 -16.62863,-17.23754 -7.49175,0.0127 -13.70683,2.36573 -18.50493,7.00704 -3.99309,3.86261 -4.66162,5.3749 -4.66162,10.54513 0,14.64129 16.83981,23.23952 30.59495,15.62147 z m -13.39534,-11.25254 c -0.92743,-0.35086 -1.68623,-1.89954 -1.68623,-3.44149 0,-6.02303 7.09452,-8.01456 9.67017,-2.71454 2.43163,5.00362 -1.99931,8.42011 -7.98394,6.15603 z m 72.04943,8.87784 c 14.02045,-6.23776 15.03767,-25.74275 1.67583,-32.13385 -6.41398,-3.06786 -12.44326,-3.09511 -19.42845,-0.0878 -8.37928,3.60755 -10.79191,6.90185 -10.79191,14.73569 0,14.3853 14.94125,23.53806 28.54453,17.48592 z M 421.94063,651.1806 c -1.61668,-3.94997 0.0192,-6.48241 4.18721,-6.48241 3.57676,0 4.02848,0.42546 4.02848,3.7943 0,3.20097 -0.5813,3.85699 -3.71739,4.19519 -2.37231,0.25584 -3.99994,-0.28947 -4.4983,-1.50708 z M 340.1113,640.64188 c 2.31922,-4.68208 2.10421,-5.71874 -1.72862,-8.33419 l -3.33009,-2.27239 0,7.01526 c 0,7.79928 2.20051,9.36149 5.05871,3.59132 z m 59.62713,-2.75131 c 2.26657,-5.13035 7.74659,-9.66858 15.35361,-12.71492 8.74867,-3.50355 17.72757,-3.37075 25.62757,0.37904 3.46449,1.64445 6.29908,2.53869 6.29908,1.9872 0,-0.55148 -2.12436,-3.11453 -4.72079,-5.69567 -4.55065,-4.52384 -4.97047,-4.66525 -11.64864,-3.9237 -3.81033,0.42309 -9.61828,1.73261 -12.90658,2.91 -5.62834,2.01529 -6.41077,2.01304 -13.35205,-0.0385 -7.11763,-2.10356 -10.29639,-4.28407 -22.50744,-15.43941 -6.09457,-5.56767 -13.2848,-8.9125 -15.90056,-7.3968 -1.17789,0.68253 -1.32197,3.67799 -0.53816,11.18852 0.58871,5.64104 1.12415,11.77022 1.18987,13.62039 0.0985,2.77156 0.87938,3.47954 4.43479,4.02048 7.14247,1.08669 13.68513,4.64953 18.0698,9.84001 4.95256,5.86268 8.38667,6.27196 10.5995,1.26326 z m -43.73318,-9.56979 c 2.57297,-1.00794 4.67814,-2.12572 4.67814,-2.48394 0,-1.27232 -9.91242,-6.94358 -11.01727,-6.30338 -1.33585,0.77406 -1.51464,8.56697 -0.22431,9.77675 1.19296,1.11848 1.17604,1.12102 6.56344,-0.98943 z m -50.63042,-41.80181 c 0.92364,-1.04343 2.46107,-1.89714 3.41653,-1.89714 0.95545,0 5.58572,-1.70699 10.28948,-3.7933 4.70378,-2.08632 9.54031,-3.79375 10.74787,-3.7943 1.20755,-5.4e-4 2.95448,-0.85836 3.88206,-1.90624 0.92759,-1.04788 6.31356,-4.1084 11.96883,-6.80114 5.65528,-2.69273 14.53164,-6.94187 19.72525,-9.44252 5.19361,-2.50066 17.75754,-8.26731 27.91985,-12.81479 10.16231,-4.54747 18.83753,-8.81517 19.27827,-9.48378 0.44073,-0.6686 -0.89287,-1.53664 -2.96356,-1.92897 -2.07069,-0.39233 -5.62913,-1.26273 -7.90764,-1.93422 -4.78601,-1.41048 -41.60337,-1.52724 -54.53828,-0.17295 -7.4999,0.78524 -9.79449,1.67881 -15.86087,6.1767 -3.90083,2.89225 -8.15015,5.59842 -9.44292,6.0137 -4.97276,1.59741 -10.52034,11.70048 -9.91924,18.0646 0.34287,3.63028 2.71708,1.21108 3.1031,-3.16191 0.5049,-5.71957 4.22768,-6.68195 4.89251,-1.26477 0.53332,4.34565 2.94562,4.60459 2.94562,0.31619 0,-4.29623 3.11774,-4.00078 4.91599,0.46585 1.85066,4.59684 0.094,7.75513 -4.31341,7.75513 -1.82069,0 -5.49528,1.09794 -8.16577,2.43988 -2.67048,1.34193 -5.63473,2.1595 -6.58719,1.81683 -2.5294,-0.91003 -7.59381,6.45263 -8.4224,12.24447 -0.5595,3.91093 -0.27188,4.99983 1.32066,4.99983 1.11975,0 2.79162,-0.85371 3.71526,-1.89715 z m 25.6308,-28.45722 c 0,-3.01552 2.07149,-3.35493 3.22814,-0.52894 1.157,2.82683 1.06575,3.05847 -1.20466,3.05847 -1.12415,0 -2.02348,-1.12424 -2.02348,-2.52953 z"
       style="fill:#cf4446" />
    <path
       inkscape:connector-curvature="0"
       id="path12739"
       d="m 249.97443,836.43113 c 1.5344,-2.02033 2.78983,-4.18226 2.78983,-4.80428 0,-3.35463 23.77186,-22.83957 33.50774,-27.4651 16.45598,-7.81825 39.38688,-14.42944 62.27048,-17.95317 19.79303,-3.04783 20.7965,-3.25199 22.59557,-4.59708 1.11489,-0.83356 1.68601,-4.95799 1.68558,-12.17256 l -6.6e-4,-10.91184 -6.68813,-5.40007 c -5.04367,-4.07232 -6.9072,-6.56012 -7.57913,-10.11812 -0.49005,-2.59494 -2.62692,-8.48499 -4.74858,-13.089 -2.12168,-4.60403 -4.71627,-11.43376 -5.76577,-15.17719 -3.08643,-11.00891 -4.85875,-13.76246 -8.85818,-13.76246 -6.71764,0 -9.08188,-2.96784 -12.07566,-15.15868 -2.9627,-12.06425 -7.51394,-20.04947 -12.99477,-22.79959 -1.82324,-0.91485 -4.56126,-4.07707 -6.08447,-7.02715 -3.3512,-6.49044 -2.54827,-11.34606 2.54681,-15.40152 l 3.56817,-2.84012 -3.94424,-6.86577 c -2.16932,-3.77618 -5.26005,-7.52601 -6.86827,-8.33297 -3.47701,-1.74465 -12.42079,-15.62689 -13.58552,-21.08697 -0.51623,-2.42 -0.0213,-5.29723 1.33396,-7.75433 1.1851,-2.14866 2.16068,-5.78464 2.16792,-8.07995 0.0142,-4.47596 4.87015,-14.76318 9.47658,-20.07568 2.06097,-2.37687 2.57555,-4.17591 1.90784,-6.67018 -0.82782,-3.09234 -1.34431,-3.33984 -5.45935,-2.61605 -3.9261,0.69056 -4.71067,0.39325 -5.76132,-2.18317 -0.66896,-1.64042 -2.50005,-4.0668 -4.06909,-5.39196 -6.40768,-5.41169 -1.44598,-9.34235 6.73857,-5.33828 2.49443,1.22033 4.22927,1.35084 5.95063,0.44766 1.67356,-0.87809 3.19081,-0.82922 4.87523,0.15705 2.01063,1.17725 3.23141,0.79008 6.86478,-2.17722 2.43058,-1.98501 6.24038,-4.48767 8.46622,-5.56147 2.22583,-1.07381 5.4293,-3.34014 7.11881,-5.03632 2.71889,-2.72962 2.96974,-3.89854 2.18314,-10.17338 -0.86639,-6.91138 -0.98159,-7.072 -4.5874,-6.39587 -2.65643,0.49811 -4.22194,0.0242 -5.55561,-1.68208 -2.46332,-3.15141 -9.30263,-3.07707 -12.12691,0.13182 -2.15547,2.44898 -2.18999,2.44799 -3.64649,-0.10359 -0.80875,-1.4168 -1.3699,-4.93983 -1.24702,-7.82896 0.21575,-5.07261 0.37843,-5.25297 4.73785,-5.25297 2.6661,0 4.17308,0.51783 3.6807,1.26476 -0.45855,0.69562 -0.22667,1.26477 0.51528,1.26477 0.74194,0 1.72415,-0.56915 2.1827,-1.26477 1.05125,-1.59475 7.00004,-1.65945 8.03632,-0.0874 0.42687,0.64756 0.15917,1.53486 -0.59488,1.97179 -2.18872,1.26826 -1.58672,3.17466 1.00249,3.17466 1.30542,0 3.16052,-1.18155 4.12244,-2.62566 2.70199,-4.05645 6.12408,-0.79764 5.00987,4.77081 -0.82372,4.1167 -0.74841,4.19764 3.60663,3.8754 3.84327,-0.28437 4.43337,0.0578 4.34081,2.51662 -0.0799,2.12184 0.65022,2.84572 2.87005,2.84572 3.5821,0 6.59825,3.0513 5.54935,5.61402 -0.64462,1.57499 2.20759,1.84823 19.07218,1.82706 18.94261,-0.0238 30.65457,1.01993 45.46094,4.05124 3.70972,0.75949 8.86961,1.47428 11.46641,1.58842 2.59681,0.11408 5.68625,0.77482 6.86544,1.46818 2.77784,1.63337 14.71839,17.1165 14.71839,19.08511 0,2.06979 3.20511,3.04418 10.01335,3.04418 7.79485,0 17.07528,2.77872 22.68973,6.79371 3.73952,2.67418 6.12546,3.32441 12.19852,3.32441 4.15236,0 7.96059,0.62325 8.46272,1.38501 0.50215,0.76175 -0.37259,3.01528 -1.94387,5.00785 -3.67412,4.65923 -3.61917,6.52818 0.17838,6.06814 5.24805,-0.63574 6.6803,1.08281 4.37926,5.25469 -2.69223,4.88116 -2.6292,5.05009 1.88411,5.05009 4.98625,0 5.97626,2.47706 2.80278,7.01271 -2.81151,4.01831 -2.39031,5.63495 1.46813,5.63495 2.99801,0 3.38742,2.66518 0.93213,6.37958 -1.68521,2.54941 -0.73114,3.94777 3.68117,5.39541 2.36985,0.77753 -3.1887,7.00631 -9.06713,10.16042 -9.07349,4.86844 -18.80623,6.69024 -26.04468,4.87513 -7.37971,-1.85054 -8.70179,-1.88384 -8.70179,-0.21916 0,0.71283 1.65702,1.88674 3.68227,2.60866 4.87678,1.73839 5.71545,3.21947 5.74,10.13685 0.015,4.20468 -0.90319,7.01368 -3.30703,10.11813 -1.83024,2.36363 -4.21555,5.43581 -5.30071,6.82705 -1.10171,1.41246 -2.66978,8.39412 -3.55082,15.80957 -1.77324,14.92506 -3.47625,18.44208 -9.65711,19.94371 -4.82771,1.17288 -4.62211,0.71151 -11.96635,26.85262 -5.15632,18.3534 -9.01718,26.36949 -16.28147,33.80422 l -5.22441,5.34699 0,11.88867 c 0,8.25451 0.53985,12.30874 1.76605,13.26284 0.97131,0.7558 6.58647,2.19969 12.47814,3.20865 26.29898,4.50372 34.24219,6.09547 43.08785,8.63437 34.05052,9.77328 54.10676,21.89737 62.8603,37.99935 l 3.9535,7.27241 -3.72914,-10e-4 c -3.03719,-0.001 -4.40534,-1.11577 -7.37333,-6.00763 -3.67883,-6.06344 -13.68285,-15.8157 -20.04047,-19.53611 -6.21153,-3.63493 -25.96962,-10.76531 -39.04333,-14.09013 -19.1303,-4.86507 -48.5064,-10.25653 -54.63406,-10.02709 -2.96778,0.11118 -12.82021,0.57646 -21.89431,1.03408 -10.75679,0.54247 -17.97421,0.34965 -20.73924,-0.55406 -5.22335,-1.70718 -36.36618,1.33862 -49.7722,4.86775 -4.82264,1.26956 -12.71423,3.32259 -17.53686,4.56229 -10.96742,2.81927 -29.98687,11.15765 -35.48597,15.55752 -7.93645,6.35002 -15.88692,14.5502 -18.76979,19.35932 -2.46735,4.11594 -3.57775,4.83533 -7.46352,4.83533 l -4.56491,0 2.78985,-3.67335 z m 159.94706,-52.42287 6.74494,-1.46849 0,-6.93732 c 0,-6.85248 -0.066,-6.96643 -5.39193,-9.31767 -5.86254,-2.58812 -25.88056,-6.28542 -28.64525,-5.29074 -1.19772,0.43092 -1.71103,3.8648 -1.71103,11.44654 0,10.05002 0.21885,10.91344 3.03523,11.9748 4.18405,1.57678 17.83896,1.3627 25.96804,-0.40712 z m 0.22331,-31.30188 c 19.06053,-3.11202 24.90563,-12.88936 34.97649,-58.50663 1.82152,-8.25082 3.93224,-16.08832 4.69049,-17.41667 0.75826,-1.32834 1.0427,-2.92479 0.63211,-3.54766 -0.41059,-0.62288 -0.22142,-2.46083 0.42037,-4.08435 0.6418,-1.62353 1.59706,-6.07727 2.1228,-9.89723 l 0.95591,-6.94537 -3.8579,6.92378 c -7.25317,13.01733 -20.39237,17.97743 -35.31331,13.33091 -7.38713,-2.30042 -11.90044,-6.6261 -15.61855,-14.9692 -2.8528,-6.40142 -5.44456,-5.89619 -8.09222,1.57748 -4.29486,12.12329 -12.26258,17.97038 -24.67752,18.10953 -10.67259,0.11965 -17.83805,-2.95765 -23.20642,-9.96626 -2.39966,-3.13284 -4.61707,-5.45787 -4.92761,-5.16674 -2.01009,1.88459 25.69487,80.05565 29.9267,84.43982 6.25331,6.47841 23.95677,9.05939 41.96866,6.11859 z m -22.04642,-22.2523 c -3.75841,-0.68593 -5.97369,-3.18064 -4.6319,-5.21614 0.78739,-1.19449 3.37054,-1.32477 10.4806,-0.5286 7.32222,0.81991 9.81645,0.6744 11.13568,-0.64967 1.3201,-1.32494 2.12978,-1.37182 3.62325,-0.20974 2.3639,1.83938 0.0227,5.17464 -2.89545,4.12477 -1.03961,-0.37403 -2.85972,0.22895 -4.0447,1.33994 -2.03882,1.91153 -7.11725,2.33491 -13.66748,1.13944 z m -9.87814,-28.97834 c -3.33874,-1.00891 -8.05872,-2.42889 -10.48885,-3.15552 -2.4301,-0.72664 -6.22414,-0.94931 -8.43118,-0.49483 -3.32097,0.68386 -4.01278,0.42352 -4.01278,-1.5101 0,-3.22496 6.40264,-11.77698 8.81706,-11.77698 1.08616,0 1.97485,1.0686 1.97485,2.37467 0,3.10374 1.94777,4.41215 10.11742,6.79637 11.6429,3.39787 19.88916,3.86532 29.21711,1.6562 13.09753,-3.10186 20.56088,-7.0938 21.36998,-11.43023 0.37097,-1.98825 1.34984,-3.82559 2.17525,-4.08297 1.95306,-0.60901 11.5662,8.39912 10.92253,10.23512 -0.27131,0.77388 -2.57048,1.69162 -5.1093,2.03943 -2.53881,0.34781 -7.34771,2.13946 -10.68646,3.98142 -6.58235,3.63146 -24.34402,7.46169 -33.85933,7.30162 -3.26471,-0.0549 -8.66755,-0.92531 -12.0063,-1.9342 z m 8.09394,-14.93316 c -3.6191,-1.22457 -4.72146,-2.30947 -4.72146,-4.64664 0,-2.3218 0.64352,-2.96613 2.69797,-2.70137 12.54634,1.61698 18.08243,1.70313 20.83064,0.32416 3.57822,-1.79544 6.00002,-0.26519 4.68091,2.95772 -2.16497,5.28958 -13.87912,7.31747 -23.48806,4.06613 z m -46.75688,4.18343 c -0.11925,-0.96856 -3.01425,-10.01362 -6.43342,-20.10012 -6.35427,-18.74499 -10.22131,-24.70152 -15.42632,-23.76171 -3.12883,0.56493 -2.92158,5.5363 0.21008,5.03921 3.26221,-0.51782 11.16679,15.53137 14.09473,28.61751 1.19476,5.33986 2.76445,10.43925 3.48821,11.33193 1.63108,2.0118 4.35996,1.25566 4.06672,-1.12682 z m 122.37945,-21.37584 c 2.92249,-19.54475 5.14476,-27.81389 7.47481,-27.81389 1.03891,0 1.90823,0.996 1.93183,2.21334 0.0394,2.02981 0.20279,2.01533 1.97122,-0.17472 2.54604,-3.15307 0.36752,-7.09768 -3.91989,-7.09768 -4.58229,0 -6.20602,2.56545 -7.64239,12.07474 -0.70227,4.64929 -1.51466,8.81448 -1.8053,9.25596 -0.57971,0.88054 -4.83441,23.37463 -4.83441,25.55893 0,0.74631 1.04645,1.16799 2.32546,0.93706 1.88139,-0.3397 2.74044,-3.19523 4.49867,-14.95374 z m -86.17179,-2.22179 c 4.3809,-2.4263 9.20023,-10.77406 9.20023,-15.9361 0,-7.84185 -9.0758,-17.24998 -16.62863,-17.23754 -7.49175,0.0127 -13.70683,2.36573 -18.50493,7.00704 -3.99309,3.86261 -4.66162,5.3749 -4.66162,10.54513 0,14.64129 16.83981,23.23952 30.59495,15.62147 z m -13.39534,-11.25254 c -0.92743,-0.35086 -1.68623,-1.89954 -1.68623,-3.44149 0,-6.02303 7.09452,-8.01456 9.67017,-2.71454 2.43163,5.00362 -1.99931,8.42011 -7.98394,6.15603 z m 72.04943,8.87784 c 14.02045,-6.23776 15.03767,-25.74275 1.67583,-32.13385 -6.41398,-3.06786 -12.44326,-3.09511 -19.42845,-0.0878 -8.37928,3.60755 -10.79191,6.90185 -10.79191,14.73569 0,14.3853 14.94125,23.53806 28.54453,17.48592 z M 421.94063,651.1806 c -1.61668,-3.94997 0.0192,-6.48241 4.18721,-6.48241 3.57676,0 4.02848,0.42546 4.02848,3.7943 0,3.20097 -0.5813,3.85699 -3.71739,4.19519 -2.37231,0.25584 -3.99994,-0.28947 -4.4983,-1.50708 z M 340.1113,640.64188 c 2.31922,-4.68208 2.10421,-5.71874 -1.72862,-8.33419 l -3.33009,-2.27239 0,7.01526 c 0,7.79928 2.20051,9.36149 5.05871,3.59132 z m 59.62713,-2.75131 c 2.26657,-5.13035 7.74659,-9.66858 15.35361,-12.71492 8.74867,-3.50355 17.72757,-3.37075 25.62757,0.37904 3.46449,1.64445 6.29908,2.53869 6.29908,1.9872 0,-0.55148 -2.12436,-3.11453 -4.72079,-5.69567 -4.55065,-4.52384 -4.97047,-4.66525 -11.64864,-3.9237 -3.81033,0.42309 -9.61828,1.73261 -12.90658,2.91 -5.62834,2.01529 -6.41077,2.01304 -13.35205,-0.0385 -7.11763,-2.10356 -10.29639,-4.28407 -22.50744,-15.43941 -6.09457,-5.56767 -13.2848,-8.9125 -15.90056,-7.3968 -1.17789,0.68253 -1.32197,3.67799 -0.53816,11.18852 0.58871,5.64104 1.12415,11.77022 1.18987,13.62039 0.0985,2.77156 0.87938,3.47954 4.43479,4.02048 7.14247,1.08669 13.68513,4.64953 18.0698,9.84001 4.95256,5.86268 8.38667,6.27196 10.5995,1.26326 z m -43.73318,-9.56979 c 2.57297,-1.00794 4.67814,-2.12572 4.67814,-2.48394 0,-1.27232 -9.91242,-6.94358 -11.01727,-6.30338 -1.33585,0.77406 -1.51464,8.56697 -0.22431,9.77675 1.19296,1.11848 1.17604,1.12102 6.56344,-0.98943 z m -36.76263,-17.8972 c 4.61479,-1.80833 9.3011,-3.98845 10.41402,-4.84473 1.11291,-0.85627 4.75518,-2.506 8.09393,-3.66605 3.33875,-1.16005 13.05147,-5.87763 21.58383,-10.48351 8.53235,-4.60589 17.33451,-9.17929 19.56034,-10.16313 2.22583,-0.98385 6.47515,-2.97416 9.44292,-4.42293 13.82182,-6.74736 17.98141,-8.59245 23.94456,-10.62126 3.52423,-1.19903 6.4077,-2.69021 6.4077,-3.31374 0,-0.62353 1.07629,-1.54222 2.39175,-2.04151 6.61937,-2.51247 17.84308,-9.53748 17.84308,-11.16813 0,-2.73685 -10.15896,-11.87309 -13.20218,-11.87309 -1.44201,0 -4.06956,1.06398 -5.83899,2.36439 -4.11247,3.0224 -25.4509,13.00089 -34.2439,16.01347 -3.70972,1.27099 -8.26255,3.26958 -10.11741,4.44131 -3.29646,2.08237 -7.82733,4.31536 -25.6308,12.63191 -4.82263,2.2528 -9.67899,4.75489 -10.79191,5.56023 -1.11292,0.80534 -5.66575,2.53912 -10.11742,3.85285 -4.45166,1.31373 -9.21743,3.2819 -10.59057,4.37372 -1.37315,1.09182 -6.53304,3.97713 -11.46641,6.41181 -6.4959,3.2058 -9.08942,5.217 -9.40362,7.29224 -0.55392,3.65875 7.12539,12.94401 10.70527,12.94401 1.44391,0 6.40102,-1.47954 11.01581,-3.28786 z m -13.86779,-23.90461 c 0.92364,-1.04343 2.46107,-1.89714 3.41653,-1.89714 0.95545,0 5.58572,-1.70699 10.28948,-3.7933 4.70378,-2.08632 9.54031,-3.79375 10.74787,-3.7943 1.20755,-5.4e-4 2.95448,-0.85836 3.88206,-1.90624 0.92759,-1.04788 6.31356,-4.1084 11.96883,-6.80114 5.65528,-2.69273 14.53164,-6.94187 19.72525,-9.44252 5.19361,-2.50066 17.75754,-8.26731 27.91985,-12.81479 10.16231,-4.54747 18.83753,-8.81517 19.27827,-9.48378 0.44073,-0.6686 -0.89287,-1.53664 -2.96356,-1.92897 -2.07069,-0.39233 -5.62913,-1.26273 -7.90764,-1.93422 -4.78601,-1.41048 -41.60337,-1.52724 -54.53828,-0.17295 -7.4999,0.78524 -9.79449,1.67881 -15.86087,6.1767 -3.90083,2.89225 -8.15015,5.59842 -9.44292,6.0137 -4.97276,1.59741 -10.52034,11.70048 -9.91924,18.0646 0.34287,3.63028 2.71708,1.21108 3.1031,-3.16191 0.5049,-5.71957 4.22768,-6.68195 4.89251,-1.26477 0.53332,4.34565 2.94562,4.60459 2.94562,0.31619 0,-4.29623 3.11774,-4.00078 4.91599,0.46585 1.85066,4.59684 0.094,7.75513 -4.31341,7.75513 -1.82069,0 -5.49528,1.09794 -8.16577,2.43988 -2.67048,1.34193 -5.63473,2.1595 -6.58719,1.81683 -2.5294,-0.91003 -7.59381,6.45263 -8.4224,12.24447 -0.5595,3.91093 -0.27188,4.99983 1.32066,4.99983 1.11975,0 2.79162,-0.85371 3.71526,-1.89715 z m 25.6308,-28.45722 c 0,-3.01552 2.07149,-3.35493 3.22814,-0.52894 1.157,2.82683 1.06575,3.05847 -1.20466,3.05847 -1.12415,0 -2.02348,-1.12424 -2.02348,-2.52953 z m -52.34078,-17.95967 c -2.20496,-2.0673 -2.03706,-3.53201 0.74194,-6.47226 1.73036,-1.83077 1.91047,-2.64538 0.6745,-3.05071 -2.47243,-0.81083 -2.09935,-7.51154 0.46967,-8.43582 2.60374,-0.93676 10.637,5.04219 10.70968,7.97095 0.0277,1.11256 0.58082,2.8278 1.22935,3.81162 0.8337,1.26474 0.0286,2.65192 -2.74817,4.73507 -4.31291,3.23557 -8.57203,3.78969 -11.07697,1.44115 z m 7.65198,-19.21676 c -0.0947,-0.0737 -0.35999,-1.27245 -0.58957,-2.66369 -0.22957,-1.39124 -0.81464,-3.75524 -1.30015,-5.25333 -1.05344,-3.25045 2.12379,-4.56097 11.5048,-4.74544 5.87392,-0.11547 6.07045,0.004 6.07045,3.67494 0,2.52953 -0.67449,3.7943 -2.02348,3.7943 -1.11292,0 -2.35398,1.13829 -2.75792,2.52953 -0.55601,1.91507 -1.94869,2.56213 -5.7332,2.66369 -2.74932,0.0737 -5.07625,0.0737 -5.17093,0 z"
       style="fill:#675655" />
    <path
       inkscape:connector-curvature="0"
       id="path12737"
       d="m 250.55683,836.7701 c 1.95603,-1.83391 3.55642,-4.02426 3.55642,-4.86745 0,-2.82328 18.78899,-18.94954 29.19131,-25.0544 11.83843,-6.94766 44.37989,-16.6799 64.56343,-19.30913 13.29294,-1.73162 24.05022,-4.23858 25.14748,-5.86056 0.61407,-0.90775 1.12579,-6.44248 1.13715,-12.29939 l 0.0206,-10.64896 -7.24817,-6.42538 c -5.79004,-5.13277 -7.41519,-7.46959 -8.07838,-11.61593 -0.45661,-2.85481 -2.3262,-8.26168 -4.15466,-12.01528 -1.82844,-3.75359 -4.21251,-10.0329 -5.29792,-13.95401 -3.15335,-11.39156 -5.64032,-15.00411 -10.32923,-15.00411 -6.09001,0 -8.68469,-3.47162 -11.12682,-14.88738 -2.36451,-11.05288 -6.50924,-18.27297 -13.12034,-22.85561 -8.81135,-6.10779 -10.21013,-15.85353 -3.0443,-21.21062 l 3.64452,-2.7246 -3.86643,-6.78768 c -2.12652,-3.73322 -5.59125,-8.10283 -7.69937,-9.71025 -4.75392,-3.62483 -13.33291,-17.7601 -13.26841,-21.86189 0.0263,-1.67221 0.91534,-4.46323 1.97567,-6.20228 1.06033,-1.73906 1.9494,-5.31513 1.97568,-7.94683 0.0482,-4.81797 4.42123,-13.93029 9.59082,-19.98463 2.31696,-2.71349 2.57849,-4.00211 1.54012,-7.58859 -0.79855,-2.75814 -1.93082,-4.14032 -3.13172,-3.82293 -8.14359,2.15238 -10.19111,-1.69162 -3.94854,-7.41293 4.41837,-4.04944 6.69369,-4.68297 9.01213,-2.50928 0.98561,0.92407 3.14845,-0.0334 7.14237,-3.16192 3.15078,-2.46804 6.46274,-4.48735 7.35991,-4.48735 0.89717,0 3.61961,-1.9234 6.04985,-4.27423 4.08577,-3.95226 4.34958,-4.70603 3.50189,-10.00591 -0.83403,-5.21446 -0.60559,-5.92281 2.53162,-7.85004 4.04081,-2.48235 6.30223,-1.67469 5.30652,1.8952 -0.59152,2.12074 -0.0403,2.52826 3.41949,2.52826 4.93025,0 6.91844,2.31454 3.81552,4.4418 -1.22627,0.84067 -2.22958,1.86697 -2.22958,2.28064 0,0.41368 10.16801,0.7207 22.59557,0.68229 21.16791,-0.0654 30.41675,0.74369 46.87737,4.10105 3.70972,0.75665 8.98814,1.33846 11.72981,1.29293 4.31731,-0.0717 5.71942,0.71719 10.46983,5.89072 3.01672,3.28542 6.74636,8.39237 8.28811,11.34876 1.54173,2.95639 2.9167,5.37525 3.05546,5.37525 0.13877,0 5.34279,0.59845 11.5645,1.32988 11.98074,1.40845 14.65966,2.32199 20.75902,7.079 3.05807,2.38506 5.39558,2.97401 11.80365,2.97401 4.39474,0 7.99043,0.2593 7.99043,0.57622 0,0.31692 -1.50897,2.66096 -3.35325,5.209 -3.90943,5.40118 -3.24711,7.40447 2.11556,6.3989 5.02257,-0.94181 5.71469,0.42362 2.51876,4.96911 -3.53882,5.03319 -3.34614,5.61255 1.86656,5.61255 6.14234,0 6.71452,0.96262 3.48462,5.86242 -3.02654,4.59129 -2.52817,6.78524 1.5413,6.78524 3.18546,0 3.31412,1.62297 0.45315,5.71673 -2.08176,2.97881 -2.03077,3.14611 1.32323,4.3417 4.26155,1.51907 3.61718,3.3768 -2.74568,7.91577 -6.50686,4.64171 -18.51141,7.81026 -25.40774,6.70627 -9.66425,-1.54707 -12.04998,-1.3975 -12.51784,0.7848 -0.29091,1.35687 0.97364,2.53016 3.68041,3.41484 8.0984,2.64685 8.12867,13.53493 0.0615,22.14921 -4.25811,4.54692 -6.65587,12.06229 -6.71992,21.06232 -0.0482,6.76 -2.21671,14.73428 -4.34187,15.96569 -0.83518,0.48395 -3.34693,1.23052 -5.58167,1.65903 -3.60063,0.69044 -4.27582,1.56726 -5.93163,7.70296 -1.02766,3.80812 -3.34979,11.81601 -5.16028,17.7953 -1.8105,5.97931 -3.29229,11.67075 -3.29287,12.64766 -0.003,3.65664 -8.43779,18.38856 -13.11744,22.9083 -4.80507,4.64088 -4.86157,4.82095 -5.37661,17.13945 -0.45032,10.7702 -0.19336,12.72419 1.90511,14.48747 1.34756,1.13232 9.02069,3.1762 17.2645,4.59869 27.64994,4.77111 31.00729,5.52368 47.21462,10.58331 27.98316,8.73583 45.8711,20.15437 53.85426,34.37717 4.17119,7.43141 4.13441,7.08403 0.75009,7.08403 -1.74075,0 -4.0592,-1.96106 -6.4077,-5.41992 -7.78835,-11.47071 -15.63061,-18.80604 -24.58934,-22.99989 -14.32054,-6.70386 -25.57052,-10.40646 -38.44619,-12.65341 -6.6775,-1.1653 -19.42545,-3.57813 -28.32877,-5.36183 -17.59124,-3.52424 -20.27899,-3.65891 -44.71739,-2.24053 -11.15531,0.64744 -17.77787,0.49711 -20.73923,-0.47078 -5.14098,-1.68026 -37.19505,1.24731 -47.08704,4.30056 -3.28543,1.01407 -7.62255,1.84377 -9.63806,1.84377 -5.75406,0 -21.14177,4.81365 -32.95203,10.30819 -8.30968,3.86596 -12.99252,7.18502 -20.3594,14.43018 -5.26211,5.17517 -10.7118,11.40161 -12.11042,13.83653 -2.14114,3.72763 -3.26954,4.42713 -7.14159,4.42713 l -4.59865,0 3.55644,-3.33438 z m 159.36466,-51.46818 8.09393,-1.57201 0.41154,-6.69644 c 0.46876,-7.6273 -0.74216,-9.56688 -7.72359,-12.37121 -6.31336,-2.53597 -25.531,-5.73489 -28.73137,-4.78254 -2.23448,0.66491 -2.45998,1.97751 -2.11473,12.30959 0.3642,10.89937 0.58064,11.65722 3.75893,13.16152 4.25245,2.0127 15.80117,1.99123 26.30529,-0.0489 z m 0.0894,-31.30228 c 4.41623,-0.75341 10.78346,-3.02418 14.20378,-5.06556 5.50411,-3.28506 6.68651,-4.86688 10.54324,-14.10467 4.71339,-11.2897 6.7296,-18.20358 11.5307,-39.54059 1.72177,-7.65183 3.76571,-15.41905 4.54209,-17.26049 0.77639,-1.84142 1.11439,-3.62671 0.75112,-3.9673 -0.36327,-0.34058 0.59363,-5.34356 2.12644,-11.11772 1.88085,-7.08525 2.34287,-10.91481 1.4211,-11.77903 -1.80972,-1.69673 -3.34394,-0.0341 -5.3187,5.76382 -2.08599,6.12454 -11.9126,14.55396 -18.26979,15.67211 -6.50933,1.14492 -14.27501,0.0863 -20.51088,-2.79623 -3.77278,-1.74392 -6.14061,-4.2731 -9.29521,-9.9286 -5.66162,-10.15008 -8.19312,-10.10445 -12.39949,0.22346 -3.75794,9.22695 -9.69778,14.16338 -19.00356,15.79334 -12.4809,2.18611 -24.09398,-3.66522 -30.56719,-15.40149 -2.81621,-5.10595 -5.17261,-4.91129 -4.03401,0.33327 1.0417,4.79817 3.02678,11.15721 5.42873,17.39052 0.93819,2.43468 3.23715,9.26441 5.1088,15.17719 7.1255,22.51022 18.36705,50.96502 21.28515,53.87726 7.0766,7.0624 24.40815,9.80992 42.45768,6.73071 z m -22.68501,-24.80161 c -1.2984,-0.31811 -2.36073,-1.43133 -2.36073,-2.47382 0,-1.56652 1.34597,-1.74241 7.75669,-1.01368 8.71015,0.99012 9.05606,1.12341 7.81215,3.01043 -0.87569,1.32845 -8.59526,1.60728 -13.20811,0.47707 z m 18.5622,-4.20785 c 0.46602,-0.70696 1.41242,-0.95796 2.1031,-0.55773 1.8711,1.08419 1.52221,1.84313 -0.84733,1.84313 -1.1567,0 -1.72179,-0.57843 -1.25577,-1.2854 z m -29.69136,-25.61963 c -5.19361,-1.44268 -11.71934,-2.63895 -14.50163,-2.65839 -5.83313,-0.0407 -6.09569,-0.81643 -2.25071,-6.64932 2.89389,-4.39007 5.28593,-5.54793 5.28593,-2.55864 0,4.0548 10.98719,8.54884 25.17014,10.29522 12.83427,1.58031 38.23235,-6.80642 38.23235,-12.62474 0,-4.55808 1.62416,-4.67683 6.26651,-0.4582 4.82137,4.38129 4.76796,6.14566 -0.18604,6.14566 -1.76178,0 -6.12702,1.66543 -9.70055,3.70094 -6.94062,3.95346 -23.75462,7.7706 -33.28416,7.55623 -3.0739,-0.0692 -9.83823,-1.3061 -15.03184,-2.74876 z m 10.39654,-13.89517 c -2.97692,-0.89412 -4.28548,-1.99887 -3.96685,-3.349 0.26153,-1.10811 1.35,-1.81484 2.41886,-1.57051 6.11113,1.39697 17.36003,1.59044 19.84932,0.34138 4.31246,-2.16386 4.92409,0.50629 0.81082,3.53979 -3.93443,2.9016 -11.53377,3.31446 -19.11215,1.03834 z m -45.6102,7.16977 c 0.45275,-1.10621 0.48377,-2.52619 0.0689,-3.15551 -0.41484,-0.62933 -3.46256,-9.25743 -6.77269,-19.17354 -4.80347,-14.38967 -6.83498,-18.73145 -10.0633,-21.50742 -4.58844,-3.9455 -6.96202,-4.33317 -9.4338,-1.54082 -1.35695,1.53294 -1.38011,2.98482 -0.11102,6.95621 1.74548,5.46217 4.1905,6.72773 4.19856,2.17321 0.0138,-7.73393 11.15158,16.53474 12.78503,27.8577 0.96299,6.67535 3.37111,10.40146 6.7223,10.40146 0.98054,0 2.15324,-0.90508 2.606,-2.01129 z m 119.09993,-8.42303 c 0.68959,-0.86953 2.28953,-8.53566 3.55543,-17.03586 2.58736,-17.37344 4.43595,-23.43849 6.28768,-20.62939 0.92824,1.40816 1.57624,1.45587 3.14924,0.23191 4.87445,-3.79287 2.40973,-11.57633 -3.66579,-11.57633 -4.85708,0 -7.60434,4.05832 -8.99938,13.29409 -0.70605,4.67427 -1.54505,8.89512 -1.86445,9.37966 -1.1868,1.80039 -4.79005,25.61689 -4.04632,26.74512 1.10036,1.66925 4.11018,1.44868 5.58359,-0.4092 z M 376.631,667.84473 c 7.62106,-4.41599 11.83183,-16.22215 8.17232,-22.91349 -2.69219,-4.92261 -9.59144,-10.84649 -13.59179,-11.67025 -11.11084,-2.288 -25.6392,6.14515 -27.39759,15.90322 -1.39898,7.76346 3.33171,15.55563 12.14798,20.00964 6.41094,3.23882 13.58159,2.77772 20.66908,-1.32912 z m -14.11079,-14.29318 c -1.19171,-2.91165 0.48155,-5.69144 3.42589,-5.69144 2.73783,0 4.99767,4.0605 3.51317,6.31251 -1.28368,1.94736 -6.06291,1.51961 -6.93906,-0.62107 z m 71.18109,12.7581 c 16.12798,-6.33466 17.91941,-26.56711 3.05954,-34.5545 -2.89055,-1.5537 -7.40332,-2.83428 -10.0284,-2.84572 -10.55681,-0.046 -22.8814,9.56709 -22.8814,17.84736 0,6.97571 4.11161,13.84512 10.59373,17.69931 6.78228,4.03265 12.34526,4.56811 19.25653,1.85355 z m -9.27818,-14.31457 c -2.4283,-0.79416 -2.07867,-6.25268 0.45898,-7.16568 3.0136,-1.08422 4.59973,0.15801 4.59973,3.60242 0,3.04476 -2.10672,4.52868 -5.05871,3.56326 z m -84.40169,-8.87784 c 0.46047,-1.21734 1.77144,-3.23199 2.91329,-4.477 1.90291,-2.07484 1.7271,-2.59084 -2.10786,-6.18637 -6.0101,-5.63486 -7.89741,-4.31723 -7.34069,5.12491 0.39418,6.68516 0.81765,7.7518 3.07757,7.7518 1.44128,0 2.99724,-0.99601 3.45769,-2.21334 z m 60.96067,-5.05907 c 3.32371,-6.10566 6.09998,-8.38979 14.10994,-11.60867 11.80969,-4.74583 23.37004,-2.96068 31.16729,4.81289 7.41254,7.39002 7.54319,3.89912 0.2397,-6.40433 -6.63166,-9.35565 -10.83014,-10.32647 -25.84921,-5.97719 -12.9059,3.73736 -18.08654,2.19871 -32.04563,-9.51755 -19.22801,-16.13861 -24.54833,-17.08314 -24.54833,-4.35811 0,3.74499 0.44367,9.51251 0.98593,12.81671 0.89844,5.47454 0.74625,6.00764 -1.71516,6.00764 -1.4856,0 -5.08122,-1.47675 -7.99026,-3.28167 -2.90904,-1.80493 -5.93126,-2.90962 -6.71602,-2.45489 -0.78478,0.45473 -1.42686,3.63892 -1.42686,7.07597 0,7.0567 0.52924,7.30061 9.44293,4.35204 11.98176,-3.96348 21.99632,-1.59313 30.12417,7.13012 7.09303,7.61262 10.65175,7.96471 14.22151,1.40704 z m -74.02344,-2.03681 c 0,-12.49618 -3.62084,-19.03911 -8.63418,-15.60215 -2.05496,1.40881 -2.08055,2.03267 -0.27971,6.8181 3.76151,9.99562 8.91389,15.07296 8.91389,8.78405 z m 126.30006,-14.13067 c -0.41767,-1.02048 -1.37249,-1.85543 -2.12181,-1.85543 -0.85499,0 -0.76415,1.23104 0.24391,3.30537 1.61409,3.32136 3.29847,2.02085 1.8779,-1.44994 z m 8.59885,1.86422 c 0,-0.65456 -0.60705,-1.19011 -1.34899,-1.19011 -0.74195,0 -1.34899,0.8873 -1.34899,1.97179 0,1.08449 0.60704,1.62004 1.34899,1.19012 0.74194,-0.42992 1.34899,-1.31723 1.34899,-1.9718 z m -121.05393,-5.93299 c -0.56935,-5.4134 -1.16505,-6.64002 -3.2247,-6.64002 -3.41185,0 -3.29933,4.4872 0.24937,9.94458 1.5211,2.33922 2.96994,4.04665 3.21965,3.7943 0.24972,-0.25236 0.13977,-3.44685 -0.24432,-7.09886 z m 150.73169,0.94858 c 1.57389,-0.95362 1.1902,-1.23034 -1.72688,-1.2454 -2.06272,-0.0101 -7.52612,-1.51714 -12.14091,-3.34774 -22.80277,-9.04545 -32.41399,-10.66564 -48.52296,-8.17963 -11.66082,1.79955 -17.39478,0.0955 -28.40191,-8.44089 -7.68243,-5.95793 -11.11865,-7.80617 -15.08194,-8.11212 -2.823,-0.21792 -5.36285,0.21345 -5.64413,0.9586 -0.49371,1.30794 16.38289,17.7079 21.83509,21.21842 4.72059,3.03946 10.26831,3.1478 23.85123,0.46577 16.23688,-3.20605 22.50145,-2.4168 51.66802,6.5095 5.3138,1.62626 11.63881,1.70374 14.16439,0.17349 z m -169.41877,-9.6991 c 4.38532,-1.96952 9.24168,-4.14418 10.79191,-4.83258 11.20087,-4.97384 34.79524,-16.75747 39.24132,-19.59811 2.96778,-1.89612 7.52062,-4.10132 10.11742,-4.90042 2.5968,-0.79911 6.5426,-2.59432 8.76843,-3.98935 4.93161,-3.09089 12.6804,-6.55554 21.29177,-9.51998 3.54908,-1.22177 6.88783,-2.89114 7.41944,-3.70972 0.5316,-0.81859 1.87712,-1.85395 2.99003,-2.30081 6.72778,-2.70137 15.57888,-8.36275 15.95919,-10.20787 0.25242,-1.22467 -1.87316,-4.33715 -4.9,-7.17501 -5.71163,-5.35502 -10.77923,-6.47907 -13.8041,-3.06188 -2.01008,2.27079 -24.5223,13.0279 -34.35229,16.41471 -3.70972,1.27813 -8.26255,3.27322 -10.11741,4.43352 -1.85486,1.16029 -6.71123,3.62766 -10.79192,5.48302 -4.08069,1.85536 -12.49674,5.90232 -18.70231,8.99322 -6.20558,3.09091 -14.40069,6.57087 -18.21136,7.73326 -3.81066,1.16238 -8.05197,3.03629 -9.42511,4.16426 -1.37315,1.12796 -6.53304,4.04285 -11.46641,6.47753 -10.88742,5.37306 -11.77592,7.86308 -5.46957,15.32837 5.1355,6.07929 7.64873,6.11187 20.66097,0.26784 z m 33.86071,-1.59857 c -0.96794,-5.37155 -2.08219,-6.24606 -4.49104,-3.52478 -1.04424,1.17966 -0.67701,2.73979 1.3521,5.74447 3.44289,5.09817 4.34293,4.46171 3.13894,-2.21969 z m 139.60502,0.42307 c 3.33376,-1.90941 3.33639,-1.92448 0.22908,-1.31182 -3.67056,0.7237 -10.94586,-1.50722 -21.83697,-6.69614 -9.46075,-4.50745 -19.76052,-6.41275 -34.66624,-6.41275 -12.64329,0 -19.04546,-1.90773 -25.33971,-7.55076 -4.20633,-3.77115 -15.75777,-6.53103 -17.33309,-4.14124 -0.43435,0.6589 3.26454,4.55516 8.21976,8.65834 l 9.00946,7.46034 20.96127,0.0694 c 20.15426,0.0668 21.42598,0.22704 33.03168,4.1632 6.63874,2.25157 12.70919,4.57795 13.48989,5.16972 1.521,1.15292 5.54608,2.25557 8.83892,2.4214 1.11291,0.056 3.54109,-0.76733 5.39595,-1.8297 z m -2.13381,-10.12935 c 3.87675,-1.39477 2.21942,-3.0266 -3.07389,-3.0266 -3.41868,0 -7.01024,-1.15338 -10.45467,-3.35736 -9.9651,-6.37634 -15.8943,-8.08089 -30.1202,-8.6591 -11.24605,-0.4571 -14.33376,-1.04802 -18.58831,-3.55742 -7.34915,-4.33464 -15.10413,-6.54118 -16.93997,-4.81996 -1.77301,1.66231 -2.30912,1.17317 8.46544,7.72343 l 8.76843,5.33065 11.76918,-0.7998 c 13.34219,-0.9067 24.92606,1.22444 33.22943,6.11338 4.34335,2.55733 11.3437,5.43643 13.90933,5.72062 0.49578,0.0549 1.86163,-0.2456 3.03523,-0.66784 z m -188.07365,-9.98281 c 0.92364,-1.04343 2.46107,-1.89715 3.41653,-1.89715 0.95545,0 5.58572,-1.70699 10.28948,-3.7933 4.70378,-2.08632 9.41509,-3.79375 10.46958,-3.79429 1.05449,-5.5e-4 2.95253,-0.87941 4.21784,-1.95302 2.53706,-2.15264 19.30367,-10.66845 35.00906,-17.78117 5.56458,-2.52012 18.20132,-8.24565 28.08162,-12.72343 9.88032,-4.47776 17.74111,-8.76894 17.46841,-9.53593 -1.72065,-4.83967 -40.31945,-7.69266 -64.43588,-4.7627 -11.10443,1.3491 -13.53581,2.10004 -18.21135,5.62464 -2.96778,2.23721 -7.01675,4.86565 -8.99773,5.84099 -1.98098,0.97533 -5.47149,3.98589 -7.75669,6.69012 -3.22795,3.81984 -4.15491,6.16842 -4.15491,10.52705 0,4.65966 0.4,5.53923 2.36073,5.19099 1.55478,-0.27615 2.50505,-1.81909 2.78345,-4.51943 0.48279,-4.68283 2.54867,-5.50274 3.19318,-1.26733 0.23708,1.55805 1.4934,3.02264 2.7918,3.25466 1.78804,0.31952 2.37383,-0.4444 2.41474,-3.149 l 0.054,-3.57084 2.02931,3.50809 c 2.47359,4.27612 1.55725,5.975 -3.22869,5.98599 -1.99651,0.005 -5.45119,1.13912 -7.67702,2.52119 -2.22583,1.38208 -5.60875,2.51662 -7.51756,2.5212 -2.74451,0.006 -4.08509,1.1619 -6.4077,5.52212 -3.76224,7.06282 -3.95436,13.4577 -0.4043,13.4577 1.39304,0 3.2885,-0.85372 4.21214,-1.89715 z m 183.46252,-2.87565 c 0,-0.95396 -16.19715,-9.13962 -18.08476,-9.13962 -0.52201,0 -3.6023,-1.13321 -6.84511,-2.51825 -4.2951,-1.83448 -7.47997,-2.31946 -11.72964,-1.78614 -4.27047,0.53593 -7.58063,0.0245 -12.35319,-1.90843 -6.61478,-2.67912 -11.70548,-3.41687 -11.67511,-1.69197 0.009,0.52172 2.28561,2.34804 5.05871,4.05851 4.33786,2.67561 6.98606,3.18183 18.96248,3.62479 11.68555,0.4322 14.93424,1.02882 20.23484,3.71616 3.4729,1.76072 7.83197,3.96779 9.68683,4.90458 3.76074,1.89938 6.74495,2.22695 6.74495,0.74037 z m -9.44292,-15.46345 c -6.15144,-3.1575 -8.5906,-3.21955 -3.37248,-0.0858 2.22583,1.33673 4.95754,2.44817 6.07045,2.46986 1.11292,0.0217 -0.10117,-1.05114 -2.69797,-2.38407 z m -9.4133,-4.39322 c -1.68346,-1.9018 -10.38253,-4.02856 -11.64325,-2.84655 -0.63119,0.59178 9.30228,4.37167 12.11604,4.61038 0.64731,0.0549 0.43455,-0.7388 -0.47279,-1.76383 z m -15.543,-1.93061 c 0.50983,-0.77344 -1.58635,-1.26476 -5.39596,-1.26476 -3.80961,0 -5.90579,0.49132 -5.39596,1.26476 0.45855,0.69562 2.88673,1.26477 5.39596,1.26477 2.50923,0 4.93741,-0.56915 5.39596,-1.26477 z M 289.20122,547.32735 c -2.76555,-3.12423 -0.59326,-6.11802 3.70527,-5.10653 4.78604,1.12623 4.86433,1.23653 3.08726,4.34971 -1.76769,3.09673 -4.45611,3.39626 -6.79253,0.75682 z m -10.35375,-8.95598 c -0.63884,-1.56085 -10e-4,-2.83488 2.05886,-4.1177 l 2.98392,-1.85754 -2.7445,-2.73899 c -2.40203,-2.39722 -2.51136,-3.03795 -0.87614,-5.13461 1.81521,-2.32746 2.00733,-2.30724 6.75325,0.71081 2.68669,1.70853 4.74314,3.96013 4.5699,5.00356 -0.17323,1.04344 0.19698,2.6632 0.82271,3.59948 1.6114,2.41112 -1.58011,4.90279 -7.59848,5.93227 -4.12506,0.70561 -5.21306,0.45095 -5.96952,-1.39728 z m 10.65674,-17.88287 c -1.68039,-0.30281 -2.71464,-1.06726 -2.29836,-1.69877 0.41629,-0.63151 0.0625,-2.36466 -0.78618,-3.85143 -1.21104,-2.12159 -1.13087,-3.08967 0.37262,-4.49929 1.05362,-0.98783 2.80409,-1.47642 3.88995,-1.08576 2.64442,0.9514 7.13322,8.93138 5.99513,10.65787 -0.92071,1.39672 -1.76116,1.45265 -7.17316,0.47738 z m 7.36129,-6.75257 c -2.68644,-2.94166 -1.96474,-5.00004 1.7531,-5.00004 2.639,0 4.84524,4.10674 3.39122,6.31251 -1.24749,1.89247 -2.51206,1.56984 -5.14432,-1.31247 z m 9.12374,-0.29619 c -0.51425,-1.23881 -0.57923,-3.92018 -0.14439,-5.9586 0.43483,-2.03843 0.19354,-4.05221 -0.53621,-4.47504 -2.3324,-1.35152 0.0915,-3.12357 4.27238,-3.12357 2.35447,0 3.69829,0.52894 3.21325,1.26477 -0.45855,0.69562 -0.22667,1.26476 0.51528,1.26476 0.74194,0 1.72415,-0.56914 2.1827,-1.26476 0.45855,-0.69563 2.27968,-1.26477 4.04697,-1.26477 1.76728,0 3.58842,0.56914 4.04697,1.26477 0.45854,0.69562 0.18103,1.26476 -0.61671,1.26476 -0.79774,0 -2.48115,2.02652 -3.74095,4.50338 -1.72942,3.40019 -2.92579,4.3476 -4.88389,3.86752 -1.63181,-0.40008 -3.48827,0.39214 -5.00688,2.13665 -2.22861,2.5601 -2.48512,2.59995 -3.34852,0.52013 z m 15.84326,0.1022 c -2.66996,-2.50327 -1.85297,-4.48212 2.42818,-5.88137 2.22583,-0.72748 4.04697,-1.92144 4.04697,-2.65325 0,-0.7318 0.93807,-1.33056 2.0846,-1.33056 1.67494,0 1.90181,0.93211 1.15441,4.74287 -1.25635,6.40583 -5.79343,8.79825 -9.71416,5.12231 z"
       style="fill:#532f2e" />
    <path
       inkscape:connector-curvature="0"
       id="path12735"
       d="m 250.40353,837.42939 c 2.04034,-1.42723 3.70972,-3.15459 3.70972,-3.83862 0,-4.0168 18.99676,-20.53957 31.4609,-27.36369 13.0823,-7.16256 40.86059,-14.81107 72.64191,-20.00128 7.17532,-1.17181 13.66121,-2.48703 14.4131,-2.9227 0.75187,-0.43567 1.54498,-6.39146 1.76244,-13.23508 0.3801,-11.96158 0.26611,-12.53528 -2.94668,-14.83004 -8.1849,-5.84613 -10.56255,-8.83358 -11.98716,-15.06159 -0.80464,-3.51768 -2.62342,-8.52839 -4.04173,-11.13494 -1.4183,-2.60653 -3.57967,-8.13689 -4.80302,-12.28969 -1.22336,-4.15278 -3.18633,-9.67206 -4.36215,-12.26507 -2.02838,-4.47311 -5.77518,-6.98263 -8.26837,-5.53796 -0.62767,0.3637 -2.41426,-0.17472 -3.9702,-1.1965 -1.9938,-1.30933 -3.49646,-4.74757 -5.08992,-11.64634 -2.60541,-11.27994 -7.05863,-19.32507 -12.94568,-23.38753 -5.18386,-3.57719 -7.90388,-8.4197 -7.90388,-14.07139 0,-3.41306 0.93455,-5.08356 4.17358,-7.46022 l 4.17359,-3.06239 -4.35006,-7.22666 c -2.39254,-3.97466 -5.76743,-8.09737 -7.49976,-9.16157 -1.73233,-1.06418 -5.35398,-5.63044 -8.04812,-10.14724 -5.24321,-8.79038 -5.23501,-8.68773 -1.99025,-24.89256 1.60529,-8.01699 3.95176,-13.08185 8.97881,-19.38065 3.64838,-4.57134 4.41,-12.69704 1.29515,-13.8177 -1.05494,-0.37954 -3.24477,-0.0244 -4.86629,0.78925 -5.28681,2.65276 -6.1059,-0.59112 -1.24825,-4.94352 4.00441,-3.5879 4.51372,-3.73598 6.05451,-1.76039 1.53849,1.97265 2.18504,1.77271 7.5634,-2.339 3.23461,-2.47282 7.39872,-5.22095 9.25358,-6.10697 4.89927,-2.34023 13.48278,-10.35445 13.53279,-12.63523 0.0688,-3.13699 3.03616,-5.92447 7.0715,-6.64278 4.30215,-0.76582 6.48008,1.29336 3.19242,3.01836 -1.21709,0.63858 -2.21288,1.98835 -2.21288,2.99947 0,1.56143 3.20093,1.72724 21.24658,1.10064 18.06988,-0.62745 23.76775,-0.33102 38.10894,1.98269 9.2743,1.49626 19.76621,3.10699 23.31536,3.57939 5.51143,0.7336 7.12462,1.65655 11.05592,6.3254 2.53161,3.00656 5.90412,7.98658 7.49447,11.0667 2.87532,5.56877 2.93136,5.60023 9.97628,5.60023 9.41838,0 18.08276,2.57893 25.54522,7.60346 5.35267,3.604 6.89541,4.0402 12.27776,3.47141 7.44106,-0.78635 8.45871,0.25413 4.04815,4.13893 -5.00489,4.4083 -4.42604,7.55198 1.39057,7.55198 5.29009,0 5.66509,0.70359 2.57766,4.8363 -3.14323,4.20742 -1.52552,6.9476 3.49167,5.91443 4.60685,-0.94866 5.39512,1.00848 2.0675,5.1333 -2.28583,2.83345 -2.69091,6.80856 -0.71739,7.03985 0.74194,0.0869 1.95603,0.30038 2.69798,0.47428 0.74194,0.17391 1.72232,0.38734 2.17863,0.47429 0.45631,0.0869 -0.19687,1.62694 -1.4515,3.42219 -2.52489,3.61288 -1.93189,6.85403 1.25402,6.85403 7.25098,0 -5.15654,9.17914 -16.19382,11.98025 -7.40513,1.87933 -9.56082,1.96393 -15.24443,0.59821 -3.64082,-0.87486 -7.65296,-1.2189 -8.91583,-0.76455 -3.34897,1.20488 -1.9772,5.18457 1.96401,5.69781 5.07677,0.6611 6.73983,2.56857 6.64564,7.62226 -0.0751,4.03337 -0.23348,4.24276 -1.30957,1.73201 -1.9241,-4.48933 -7.19843,-6.1777 -11.34363,-3.63123 -3.51672,2.16038 -4.04213,3.37139 -6.1069,14.07583 -0.6709,3.4781 -2.4391,12.58441 -3.92933,20.23625 -2.37992,12.22015 -2.4692,14.14057 -0.73389,15.78813 3.19688,3.0352 6.48623,0.0415 7.75403,-7.0572 5.20527,-29.14511 5.51691,-30.24738 8.44578,-29.87229 1.83028,0.2344 3.32542,-0.6466 4.29292,-2.52953 0.81649,-1.58905 1.52561,-2.22143 1.57582,-1.40528 0.0502,0.81617 -1.43461,3.18415 -3.29963,5.26221 -5.10181,5.68461 -7.00643,11.11783 -8.05421,22.97587 -1.08368,12.26444 -2.93233,15.86817 -8.75521,17.06723 -4.9026,1.00957 -6.37174,3.30606 -8.74478,13.66947 -6.23807,27.24251 -12.19966,41.37122 -20.47374,48.5219 l -4.63425,4.00506 0.38402,13.68738 c 0.44525,15.86934 0.33783,15.7482 15.8974,17.92657 34.90725,4.88709 63.46667,13.44093 82.96283,24.84821 5.49526,3.2153 19.56034,16.04589 19.56034,17.84354 0,0.79748 1.21409,2.89708 2.69798,4.66576 3.30859,3.94357 3.36474,4.72316 0.33725,4.68131 -1.44153,-0.0199 -3.38138,-2.10396 -4.98199,-5.35232 -3.40667,-6.9136 -11.81584,-15.39477 -20.29987,-20.47364 -9.81339,-5.87467 -40.31346,-16.86938 -51.14338,-18.43623 -5.12215,-0.74107 -17.633,-3.04627 -27.80187,-5.12267 -14.78713,-3.0194 -19.24782,-3.50472 -22.27966,-2.42399 -6.05357,2.15787 -28.56927,2.84428 -35.8569,1.09314 -8.10812,-1.94832 -35.34462,0.22743 -48.41588,3.86763 -4.82263,1.34304 -12.71422,3.41941 -17.53685,4.61414 -4.82264,1.19472 -15.6573,5.24655 -24.07705,9.00406 -13.08837,5.841 -16.6522,8.12189 -24.57274,15.7268 -5.09526,4.89224 -10.01396,10.83914 -10.93042,13.21535 -1.4069,3.64781 -2.3066,4.31413 -5.77952,4.28029 l -4.11321,-0.0401 3.70972,-2.59496 z m 160.27572,-51.72464 c 3.95806,-0.70377 7.67389,-1.98434 8.25741,-2.84572 2.12945,-3.14349 1.21851,-13.09072 -1.40246,-15.31458 -6.45195,-5.47438 -32.88954,-10.54461 -37.2581,-7.1454 -1.54039,1.19861 -2.05586,4.23831 -2.05586,12.12362 0,9.44136 0.30841,10.72645 2.99815,12.4928 3.52538,2.3151 18.36446,2.66229 29.46086,0.68928 z m 3.38334,-31.62411 c 3.0991,-0.65115 8.10795,-2.7021 11.13079,-4.55765 4.80473,-2.94934 6.18445,-4.98159 10.96866,-16.15629 3.00991,-7.03042 5.4699,-13.99363 5.46664,-15.47384 -0.003,-1.48019 0.81175,-4.61049 1.81118,-6.95621 0.99943,-2.34571 2.57766,-8.53353 3.50718,-13.75068 0.92954,-5.21716 2.49894,-12.33147 3.48757,-15.80957 0.98863,-3.47811 2.86596,-11.59274 4.17182,-18.03251 1.90843,-9.4113 2.04086,-12.01701 0.67494,-13.28004 -1.35657,-1.25438 -2.08922,-1.07612 -3.63204,0.88371 -1.06296,1.35029 -1.93266,3.39919 -1.93266,4.55311 0,3.50386 -7.48455,12.03634 -12.52525,14.27898 -6.85938,3.05176 -17.99378,2.72729 -25.21251,-0.73472 -4.71497,-2.26123 -6.73855,-4.35435 -9.85237,-10.19095 -3.35916,-6.29644 -4.39397,-7.28968 -7.24731,-6.95621 -2.65224,0.30997 -3.96996,1.87336 -6.48474,7.69371 -3.9529,9.14882 -5.48426,10.87338 -12.19773,13.73661 -6.66206,2.84129 -13.15178,2.95776 -21.21838,0.38079 -6.19201,-1.97809 -10.74217,-6.56767 -14.6551,-14.78207 -1.611,-3.38199 -4.40356,-4.552 -5.80181,-2.43083 -2.21365,3.35814 26.94628,85.16003 32.60434,91.46442 5.0506,5.62755 17.37352,8.84968 30.58246,7.99653 5.89578,-0.38079 13.25523,-1.22513 16.35432,-1.87629 z m -27.41957,-26.11579 c -0.93206,-0.3523 -1.44547,-1.01881 -1.14092,-1.48111 0.82778,-1.25655 14.30197,-0.1461 14.30197,1.17866 0,1.18859 -10.19678,1.42292 -13.16105,0.30245 z m -12.46974,-29.78633 c -4.82264,-1.39001 -10.43781,-2.60884 -12.47815,-2.7085 -2.04035,-0.0997 -3.69622,-0.75035 -3.67972,-1.44597 0.0378,-1.59287 5.0307,-7.76609 5.61094,-6.93731 0.23622,0.33741 1.08467,1.75177 1.88543,3.14302 2.15757,3.74857 16.99875,8.12252 27.74249,8.1762 15.56146,0.0778 34.51696,-7.07383 36.17202,-13.64706 0.73187,-2.90669 0.74188,-2.90462 4.69384,0.96279 3.9418,3.85748 3.94552,3.87568 0.79089,3.87568 -1.74323,0 -5.95435,1.67243 -9.35805,3.71649 -12.22796,7.34341 -35.22519,9.5208 -51.37969,4.86466 z m 10.94691,-14.13716 c -4.69373,-2.43928 -1.85747,-3.24898 6.16876,-1.76109 4.98352,0.92385 8.24605,0.88777 11.3462,-0.12546 5.19374,-1.69751 6.75581,-0.84012 3.14089,1.72398 -3.27933,2.32608 -16.29565,2.42852 -20.65585,0.16258 z m -43.33493,8.40174 c -0.0121,-2.25814 -11.42662,-37.32747 -13.00845,-39.96794 -3.96259,-6.61453 -11.71931,-9.30162 -15.27041,-5.28996 -2.6053,2.94321 1.3043,12.67858 5.11088,12.72668 1.58861,0.0201 3.41696,0.58922 4.06302,1.26477 2.08157,2.17658 5.67596,12.03008 7.73328,21.19963 1.10192,4.91129 2.67081,9.68349 3.48644,10.60488 2.23624,2.5263 7.90009,2.13981 7.88524,-0.53806 z m 34.76588,-23.93209 c 9.39702,-6.57786 12.52034,-18.06661 7.13329,-26.23883 -5.10182,-7.73954 -9.83739,-10.02753 -19.12095,-9.23829 -17.38171,1.47772 -26.22215,15.01923 -18.33204,28.08048 4.28544,7.09411 11.96944,11.02347 20.28564,10.37343 3.59771,-0.28121 8.08497,-1.61244 10.03406,-2.97679 z M 362.9317,654.60552 c -1.72821,-1.6203 -0.8801,-5.21693 1.42582,-6.04655 3.13396,-1.12753 6.34317,2.81975 4.23176,5.20501 -1.60625,1.81459 -4.20712,2.20145 -5.65758,0.84154 z m 71.67583,11.70661 c 15.68206,-7.6812 17.26989,-28.05335 2.7286,-35.0086 -10.10501,-4.83333 -25.33534,-1.53325 -30.83434,6.68111 -3.56254,5.32169 -3.07904,15.8804 0.96138,20.99462 6.64613,8.41245 18.43716,11.59771 27.14436,7.33287 z m -11.31977,-16.40084 c -1.09183,-2.66762 0.44071,-4.58071 3.66953,-4.58071 2.03796,0 2.60502,0.70422 2.28111,2.83279 -0.50309,3.30607 -4.79672,4.56726 -5.95064,1.74792 z m -81.62348,-7.81492 c 3.70058,-5.8804 3.58791,-6.99575 -1.1352,-11.23827 -5.74704,-5.16224 -8.17447,-3.72392 -8.17447,4.8436 0,3.79086 0.36847,7.79273 0.81883,8.89305 1.40224,3.42606 5.5262,2.2126 8.49084,-2.49838 z m 57.43305,-0.2439 c 1.08067,-1.21734 3.35583,-4.20534 5.05593,-6.64002 4.22857,-6.05562 14.45508,-10.58572 23.55298,-10.43339 9.15595,0.1533 15.57212,3.14074 19.89304,9.26245 5.09023,7.21161 8.10957,6.13249 4.91097,-1.75523 -1.22652,-3.02455 -1.14768,-3.06849 3.67564,-2.04857 5.56942,1.17769 6.96707,0.0877 7.00001,-5.45958 0.0178,-2.99297 -0.52077,-3.4781 -3.86114,-3.4781 -2.13498,0 -4.63749,-0.85372 -5.56113,-1.89715 -3.04699,-3.44217 -8.6074,-1.23731 -5.72149,2.26875 0.69064,0.83905 1.65465,2.66384 2.14226,4.05508 0.72473,2.06779 0.38555,1.95237 -1.85807,-0.63238 -7.80419,-8.9907 -7.98305,-9.08224 -16.72583,-8.5591 -4.50402,0.26951 -11.09922,1.29198 -14.656,2.27217 -5.83636,1.60842 -7.14574,1.55612 -13.42963,-0.53637 -3.82951,-1.2752 -8.55812,-3.8188 -10.50801,-5.65242 -9.82309,-9.23735 -17.25782,-15.00172 -21.38883,-16.58346 -4.31228,-1.65114 -4.73016,-1.57781 -7.18131,1.26025 -1.8361,2.1259 -2.37952,4.14892 -1.84514,6.86899 1.40437,7.14847 2.29609,19.66517 1.40101,19.66517 -0.48846,0 -3.76735,-1.51745 -7.28643,-3.37213 -9.07035,-4.78035 -11.39604,-3.64532 -10.1604,4.95864 0.52405,3.64896 1.17415,6.85893 1.44469,7.13325 0.27054,0.27434 3.10566,-0.43709 6.30026,-1.58095 7.06053,-2.52809 17.09657,-2.6843 22.96112,-0.35739 2.38748,0.94731 6.88535,4.36218 9.99527,7.58859 6.0821,6.31001 8.75894,7.13515 11.85023,3.6529 z m -70.54484,-9.93289 c -0.23709,-4.81301 -1.30911,-9.99786 -2.39184,-11.56812 -2.23853,-3.24653 -7.49212,-3.77484 -9.94805,-1.00038 -2.84158,3.21014 1.00274,14.31497 6.85514,19.80198 4.5445,4.26076 5.95904,2.39522 5.48475,-7.23348 z m 13.91954,-13.25447 0,-8.11559 -4.39349,-0.39697 c -6.22262,-0.56225 -6.90926,2.36738 -2.52099,10.75622 4.70675,8.99774 6.91448,8.28135 6.91448,-2.24366 z m 155.73207,0.78191 c 3.14646,-1.82321 1.09492,-3.20605 -4.75643,-3.20605 -3.94534,0 -9.57974,-1.39834 -15.575,-3.86539 -17.33103,-7.13172 -25.37091,-9.09298 -35.57544,-8.67834 -5.19361,0.21104 -14.01063,0.41569 -19.59337,0.45477 -11.02059,0.0771 -9.62316,0.70661 -24.75166,-11.14886 -7.12694,-5.58503 -15.79942,-7.39214 -20.29875,-4.22971 -2.45126,1.72293 -1.9551,2.38988 9.24554,12.42825 6.50971,5.83419 13.44226,11.60099 15.40567,12.81511 3.97338,2.45702 12.9384,2.90937 18.48387,0.93263 1.99278,-0.71036 7.55452,-1.81354 12.35943,-2.45151 7.44028,-0.98788 10.46777,-0.7276 20.40914,1.75465 17.05953,4.25956 27.69372,7.1016 28.14081,7.52076 0.63415,0.59458 14.94647,-1.42253 16.50619,-2.32631 z m -159.03751,-16.1699 c 15.17299,-7.13012 30.50114,-14.81357 34.06257,-17.07434 3.56142,-2.26077 7.07758,-4.11048 7.81365,-4.11048 0.73609,0 6.92787,-2.76775 13.75952,-6.15056 6.83164,-3.38282 14.84936,-6.86964 17.81714,-7.7485 2.96777,-0.87886 6.52166,-2.52198 7.89752,-3.65138 1.37586,-1.12938 6.23222,-4.07214 10.79191,-6.53944 10.65526,-5.76569 11.45072,-9.00445 3.99213,-16.25399 -6.81428,-6.62328 -10.96972,-7.5416 -16.06028,-3.54921 -6.94697,5.44834 -43.49413,20.87663 -39.23354,16.56235 0.61187,-0.61958 8.50346,-4.54137 17.53686,-8.7151 12.82708,-5.92652 16.42438,-8.14261 16.42438,-10.11812 0,-2.0058 -1.25684,-2.73774 -6.07045,-3.53512 -16.20256,-2.68402 -31.15169,-3.35712 -47.82151,-2.15321 -9.60811,0.69391 -18.50638,1.26165 -19.77394,1.26165 -1.26757,0 -5.65811,2.56115 -9.75678,5.69145 -4.09866,3.13029 -8.02697,5.69144 -8.72958,5.69144 -2.29606,0 -10.66323,10.66663 -11.64091,14.84004 -1.87529,8.00502 2.9823,12.7257 6.22616,6.05071 1.37519,-2.82976 1.68744,-2.93262 3.16217,-1.04172 1.39879,1.79353 0.9359,2.43288 -3.189,4.40456 -2.65391,1.26857 -6.20594,2.30649 -7.89339,2.30649 -6.21281,0 -13.79065,16.64619 -9.20291,20.21596 1.65221,1.28561 2.4607,1.27486 4.17037,-0.0554 2.33683,-1.81832 14.05617,-6.68379 23.50998,-9.76056 3.33875,-1.08659 7.73654,-3.26264 9.77288,-4.83564 2.03636,-1.573 5.0159,-3.25085 6.62121,-3.72855 1.60531,-0.47769 7.30063,-3.36275 12.65627,-6.41121 5.35562,-3.04849 10.44079,-5.5427 11.30036,-5.5427 0.85957,0 3.07807,-0.93081 4.92997,-2.06847 1.85192,-1.13766 3.73769,-1.72103 4.19061,-1.29639 1.26547,1.18647 -5.06977,5.639 -10.35062,7.27462 -2.5968,0.8043 -6.5426,2.70036 -8.76843,4.21346 -5.17096,3.51518 -22.67358,11.42537 -31.19818,14.0998 -3.61544,1.13428 -7.7876,3.06034 -9.27149,4.28015 -1.48389,1.21979 -6.22666,3.86063 -10.5395,5.86853 -9.65172,4.49349 -12.29086,7.05651 -11.25407,10.92948 1.25058,4.67162 10.14052,13.61327 13.53453,13.61327 1.64843,0 15.41139,-5.83373 30.58439,-12.96384 z m -14.23142,-40.15631 c 0.45855,-0.69562 1.10143,-1.26476 1.42861,-1.26476 0.32718,0 0.59488,0.56914 0.59488,1.26476 0,0.69562 -0.64288,1.26477 -1.42861,1.26477 -0.78573,0 -1.05342,-0.56915 -0.59488,-1.26477 z m 33.2388,51.5392 c 0.45021,-3.77476 -0.52657,-11.79216 -1.56042,-12.808 -1.8517,-1.81946 -8.07107,0.28929 -8.07107,2.73657 0,2.64555 6.29389,11.65239 8.14257,11.65239 0.71519,0 1.38521,-0.71143 1.48892,-1.58096 z m 140.21741,-5.42912 c 5.37908,-2.60796 4.0948,-3.93797 -4.47042,-4.62959 -4.67021,-0.37711 -10.80741,-2.31138 -17.89901,-5.64126 -11.39013,-5.34826 -17.54115,-6.65872 -35.07371,-7.47237 -15.63823,-0.72574 -19.112,-1.5195 -23.9734,-5.47798 -6.28179,-5.11505 -9.54085,-6.44693 -15.77543,-6.44693 -8.88197,0 -8.52302,2.8273 1.45325,11.44675 9.64618,8.33424 15.99577,10.73337 24.62036,9.30253 12.03518,-1.99665 26.59795,-0.79072 39.08167,3.23633 6.55412,2.11426 13.21493,4.69672 14.8018,5.73881 3.7328,2.45132 12.11928,2.42394 17.23489,-0.0563 z m -1.73769,-11.41556 c 4.11922,-2.70508 2.5727,-4.34014 -4.10514,-4.34014 -4.12023,0 -7.91696,-1.3281 -14.56834,-5.09601 -11.35221,-6.43088 -15.60068,-7.55165 -28.62556,-7.55165 -9.34364,0 -11.54431,-0.49437 -20.02499,-4.49853 -6.313,-2.98067 -10.96331,-4.36759 -13.78242,-4.11049 -7.24977,0.66121 -5.82012,3.7521 4.78874,10.35317 l 9.82034,6.11042 11.41484,-0.5527 c 14.66525,-0.71009 27.33199,1.68297 35.12529,6.63602 7.73219,4.91423 15.34639,6.07783 19.95724,3.04991 z m -5.11836,-12.77408 c 0,-1.09167 -5.89544,-4.48606 -14.50164,-8.34955 -11.84106,-5.31569 -16.11034,-6.59805 -23.27006,-6.98959 -4.82263,-0.26374 -12.23703,-1.63663 -16.47644,-3.05086 -13.20639,-4.40554 -16.32961,-0.16399 -4.92956,6.69467 6.63102,3.98945 7.4436,4.15683 19.28062,3.97156 12.11268,-0.18959 12.59164,-0.0825 24.14308,5.39885 11.47906,5.44699 15.754,6.07787 15.754,2.32492 z m -4.72146,-12.75621 c 0,-0.8534 -4.85637,-3.86358 -10.79192,-6.68929 -9.69909,-4.61739 -12.05547,-5.20322 -23.27006,-5.78527 -9.98,-0.51799 -12.47815,-0.30209 -12.47815,1.07839 0,3.51465 3.3224,4.76167 12.74795,4.78479 7.98577,0.0196 11.13227,0.72817 19.62779,4.42003 10.19714,4.43134 14.16439,5.0451 14.16439,2.19135 z M 288.78394,547.14417 c -1.89692,-1.77848 -0.86573,-2.99484 2.53892,-2.99484 2.18803,0 3.27595,0.58833 2.92345,1.58095 -0.64935,1.82846 -4.07457,2.71505 -5.46237,1.41389 z m -9.53238,-8.69765 c -0.45798,-1.11897 0.3194,-2.55288 1.87916,-3.46614 3.15786,-1.84898 3.46578,-4.53307 0.6368,-5.55086 -2.43871,-0.8774 -2.72558,-5.53396 -0.33724,-5.47436 3.10042,0.0774 7.80158,4.7004 6.93439,6.81916 -0.45568,1.11338 -0.10346,2.84351 0.78286,3.84472 1.32617,1.49816 0.72674,2.16696 -3.3863,3.7782 -6.05601,2.37238 -5.56038,2.36862 -6.50967,0.0493 z m 54.45204,-20.17425 c 0,-1.97543 4.0123,-6.19617 5.00523,-5.26524 0.35039,0.32851 0.25501,1.7259 -0.21194,3.1053 -1.0184,3.00832 -4.79329,4.70937 -4.79329,2.15994 z m -45.86563,-1.87314 c 0,-1.35019 -0.61694,-2.81238 -1.37099,-3.24931 -1.71456,-0.9935 -0.40811,-3.14917 1.90857,-3.14917 1.46963,0 2.64272,1.56132 5.93926,7.90479 0.27112,0.52172 -1.07525,0.94857 -2.99195,0.94857 -2.55024,0 -3.48489,-0.65839 -3.48489,-2.45488 z m 10.22932,-4.96397 c -0.5811,-0.88154 -0.69225,-1.94436 -0.24699,-2.36183 1.20731,-1.13192 2.52365,0.53284 1.87158,2.36694 -0.45693,1.28522 -0.77469,1.28422 -1.62459,-0.005 z m 24.91904,-0.39797 c 0.0939,-2.09834 7.84211,-7.94807 9.04001,-6.82496 0.48785,0.45739 -0.1059,2.37376 -1.31941,4.25859 -2.33222,3.62241 -7.84986,5.45651 -7.7206,2.56637 z m -16.21961,-3.88226 c -0.0236,-2.60858 -0.68577,-4.74287 -1.4715,-4.74287 -0.78574,0 -1.05343,-0.56914 -0.59488,-1.26476 1.38335,-2.09857 7.06353,-1.42843 8.04032,0.94857 0.86623,2.10795 0.97265,2.10795 2.23485,0 1.42655,-2.38244 7.2431,-3.02321 8.61068,-0.94857 0.45854,0.69562 -0.0986,1.26476 -1.23828,1.26476 -1.1396,0 -3.07655,1.43742 -4.30433,3.19426 -1.5932,2.27971 -2.98225,2.97108 -4.85163,2.41481 -1.69607,-0.5047 -3.28248,0.0411 -4.50082,1.54862 -1.71752,2.12516 -1.88525,1.91469 -1.92441,-2.41482 z"
       style="fill:#292320" />
    <text
       xml:space="preserve"
       style="font-style:normal;font-weight:normal;font-size:192px;line-height:1.25;font-family:sans-serif;letter-spacing:0px;word-spacing:0px;opacity:1;vector-effect:none;fill:#cf4446;fill-opacity:1;stroke:none;stroke-width:1;stroke-linecap:butt;stroke-linejoin:miter;stroke-miterlimit:4;stroke-dasharray:none;stroke-dashoffset:0;stroke-opacity:1"
       x="424.77322"
       y="535.16675"
       id="text824"><tspan
         sodipodi:role="line"
         id="tspan822"
         x="424.77322"
         y="535.16675">??</tspan></text>
  </g>
</svg>
